<svg width="24" height="24" viewBox="0 0 24 24" fill="none" xmlns="http://www.w3.org/2000/svg">
<path d="M2 3H3.21861C3.58925 3 3.9295 3.20501 4.1027 3.53269L4.71498 4.69106M4.71498 4.69106L8.86721 12.0213C9.04474 12.3347 9.37711 12.5285 9.73731 12.5285H10.065M4.71498 4.69106H18.8374C19.5161 4.69106 19.9985 5.35159 19.7925 5.99821C19.3415 7.41327 18.6381 9.64459 18.2602 10.9675C18.0489 11.6504 17.5122 12.5285 16.6992 12.5285C15.8862 12.5285 12.9268 12.5285 12.9268 12.5285C12.9268 12.5285 12.9268 12.5285 12.9268 12.5285H10.065M10.065 12.5285L8.769 15.262M15.5285 17.0488C15.5285 18.1264 16.402 19 17.4797 19C18.5573 19 19.4309 18.1264 19.4309 17.0488C19.4309 15.9712 18.5573 15.0976 17.4797 15.0976C16.402 15.0976 15.5285 15.9712 15.5285 17.0488ZM15.5285 17.0488C13.3441 17.0488 12.1194 17.0488 9.93496 17.0488M9.93496 17.0488C9.93496 18.1264 9.06137 19 7.98374 19C6.90611 19 6.03252 18.1264 6.03252 17.0488C6.03252 15.9712 6.90611 15.0976 7.98374 15.0976C8.26309 15.0976 8.52873 15.1563 8.769 15.262M9.93496 17.0488C9.93496 16.2505 9.45558 15.5642 8.769 15.262" stroke="#1A1D1E" stroke-linecap="round"/>
<rect x="12" width="12" height="12" rx="6" fill="#42A9DE"/>
<path d="M17.688 9.08C17.2453 9.08 16.8453 8.968 16.488 8.744C16.136 8.52 15.8587 8.19467 15.656 7.768C15.4533 7.336 15.352 6.81333 15.352 6.2C15.352 5.58667 15.4533 5.06667 15.656 4.64C15.8587 4.208 16.136 3.88 16.488 3.656C16.8453 3.432 17.2453 3.32 17.688 3.32C18.136 3.32 18.536 3.432 18.888 3.656C19.24 3.88 19.5173 4.208 19.72 4.64C19.928 5.06667 20.032 5.58667 20.032 6.2C20.032 6.81333 19.928 7.336 19.72 7.768C19.5173 8.19467 19.24 8.52 18.888 8.744C18.536 8.968 18.136 9.08 17.688 9.08ZM17.688 8.176C17.9493 8.176 18.176 8.10667 18.368 7.968C18.56 7.824 18.7093 7.60533 18.816 7.312C18.928 7.01867 18.984 6.648 18.984 6.2C18.984 5.74667 18.928 5.376 18.816 5.088C18.7093 4.79467 18.56 4.57867 18.368 4.44C18.176 4.296 17.9493 4.224 17.688 4.224C17.4373 4.224 17.2133 4.296 17.016 4.44C16.824 4.57867 16.672 4.79467 16.56 5.088C16.4533 5.376 16.4 5.74667 16.4 6.2C16.4 6.648 16.4533 7.01867 16.56 7.312C16.672 7.60533 16.824 7.824 17.016 7.968C17.2133 8.10667 17.4373 8.176 17.688 8.176Z" fill="white"/>
</svg>
