<svg width="262" height="65" viewBox="0 0 262 65" fill="none" xmlns="http://www.w3.org/2000/svg">
<path d="M0.460938 62.3731V53.1806H1.56589L5.79705 60.1275H5.20415L9.38142 53.1806H10.4864L10.4998 62.3731H9.20624L9.19277 55.1636H9.50269L5.78358 61.2569H5.16373L1.41767 55.1636H1.75454V62.3731H0.460938Z" fill="white"/>
<path d="M17.5997 62.3731V60.9023L17.5323 60.6266V58.1183C17.5323 57.5843 17.3706 57.1728 17.0472 56.8839C16.7328 56.5862 16.2567 56.4374 15.6189 56.4374C15.1967 56.4374 14.7834 56.5074 14.3792 56.6475C13.9749 56.7788 13.6336 56.9583 13.3551 57.1859L12.8161 56.2404C13.1844 55.9515 13.6246 55.7326 14.1366 55.5838C14.6577 55.4262 15.2012 55.3474 15.7671 55.3474C16.7463 55.3474 17.5009 55.5794 18.0309 56.0434C18.5609 56.5074 18.8259 57.2166 18.8259 58.1708V62.3731H17.5997ZM15.2551 62.4519C14.725 62.4519 14.2579 62.3644 13.8537 62.1893C13.4584 62.0142 13.153 61.7734 12.9374 61.467C12.7218 61.1519 12.614 60.7973 12.614 60.4033C12.614 60.0269 12.7038 59.6854 12.8835 59.379C13.0721 59.0726 13.373 58.8275 13.7863 58.6436C14.2085 58.4598 14.7745 58.3678 15.4841 58.3678H17.7479V59.274H15.538C14.8912 59.274 14.4555 59.379 14.231 59.5891C14.0064 59.7992 13.8941 60.0531 13.8941 60.3508C13.8941 60.6922 14.0333 60.968 14.3118 61.1781C14.5903 61.3795 14.9766 61.4802 15.4707 61.4802C15.9558 61.4802 16.378 61.3751 16.7373 61.165C17.1056 60.9549 17.3706 60.6485 17.5323 60.2457L17.7884 61.1125C17.6177 61.5239 17.3167 61.8522 16.8855 62.0974C16.4543 62.3338 15.9108 62.4519 15.2551 62.4519Z" fill="white"/>
<path d="M22.5702 62.3731V56.1879L22.8936 56.5162H19.9561V55.4131H26.478V56.5162H23.5539L23.8638 56.1879V62.3731H22.5702Z" fill="white"/>
<path d="M30.665 62.4519C29.9014 62.4519 29.2277 62.2987 28.6438 61.9923C28.0688 61.6859 27.6197 61.2657 27.2963 60.7316C26.9819 60.1976 26.8246 59.5847 26.8246 58.8931C26.8246 58.2015 26.9774 57.5887 27.2828 57.0546C27.5972 56.5206 28.0239 56.1047 28.5629 55.8071C29.1109 55.5006 29.7263 55.3474 30.409 55.3474C31.1007 55.3474 31.7116 55.4963 32.2416 55.7939C32.7716 56.0916 33.1849 56.5118 33.4813 57.0546C33.7868 57.5887 33.9395 58.2146 33.9395 58.9325C33.9395 58.985 33.935 59.0463 33.926 59.1164C33.926 59.1864 33.9215 59.2521 33.9125 59.3133H27.8353V58.4072H33.2388L32.7132 58.7224C32.7222 58.2759 32.6279 57.8776 32.4303 57.5274C32.2326 57.1772 31.9586 56.9058 31.6083 56.7132C31.2669 56.5118 30.8672 56.4111 30.409 56.4111C29.9598 56.4111 29.5601 56.5118 29.2097 56.7132C28.8594 56.9058 28.5854 57.1816 28.3878 57.5405C28.1901 57.8907 28.0913 58.2934 28.0913 58.7487V58.9588C28.0913 59.4228 28.1991 59.8386 28.4147 60.2063C28.6393 60.5653 28.9492 60.8454 29.3445 61.0468C29.7397 61.2482 30.1934 61.3488 30.7055 61.3488C31.1277 61.3488 31.5095 61.2788 31.8508 61.1387C32.2012 60.9986 32.5066 60.7885 32.7671 60.5084L33.4813 61.3226C33.1579 61.6903 32.7537 61.9704 32.2686 62.163C31.7924 62.3556 31.2579 62.4519 30.665 62.4519Z" fill="white"/>
<path d="M39.7328 62.4519C39.1399 62.4519 38.5964 62.3206 38.1023 62.058C37.6172 61.7866 37.2264 61.3882 36.93 60.8629C36.6425 60.3377 36.4988 59.681 36.4988 58.8931C36.4988 58.1052 36.638 57.4486 36.9165 56.9233C37.204 56.398 37.5903 56.004 38.0754 55.7414C38.5694 55.4787 39.1219 55.3474 39.7328 55.3474C40.4335 55.3474 41.0533 55.4963 41.5923 55.7939C42.1313 56.0916 42.5581 56.5074 42.8725 57.0415C43.1869 57.5668 43.3441 58.184 43.3441 58.8931C43.3441 59.6023 43.1869 60.2238 42.8725 60.7579C42.5581 61.2919 42.1313 61.7078 41.5923 62.0054C41.0533 62.3031 40.4335 62.4519 39.7328 62.4519ZM35.9463 64.9208V55.4131H37.186V57.291L37.1052 58.9062L37.2399 60.5215V64.9208H35.9463ZM39.625 61.3488C40.0831 61.3488 40.4919 61.2482 40.8512 61.0468C41.2195 60.8454 41.507 60.5609 41.7136 60.1932C41.9292 59.8167 42.037 59.3834 42.037 58.8931C42.037 58.3941 41.9292 57.9651 41.7136 57.6062C41.507 57.2385 41.2195 56.9539 40.8512 56.7526C40.4919 56.5512 40.0831 56.4505 39.625 56.4505C39.1758 56.4505 38.7671 56.5512 38.3988 56.7526C38.0394 56.9539 37.752 57.2385 37.5364 57.6062C37.3297 57.9651 37.2264 58.3941 37.2264 58.8931C37.2264 59.3834 37.3297 59.8167 37.5364 60.1932C37.752 60.5609 38.0394 60.8454 38.3988 61.0468C38.7671 61.2482 39.1758 61.3488 39.625 61.3488Z" fill="white"/>
<path d="M45.2236 62.3731V55.4131H46.5172V60.4821L50.8965 55.4131H52.0689V62.3731H50.7753V57.3041L46.4094 62.3731H45.2236Z" fill="white"/>
<path d="M58.9591 62.3731V60.9023L58.8918 60.6266V58.1183C58.8918 57.5843 58.7301 57.1728 58.4067 56.8839C58.0923 56.5862 57.6161 56.4374 56.9783 56.4374C56.5561 56.4374 56.1429 56.5074 55.7386 56.6475C55.3344 56.7788 54.993 56.9583 54.7145 57.1859L54.1755 56.2404C54.5438 55.9515 54.984 55.7326 55.4961 55.5838C56.0171 55.4262 56.5606 55.3474 57.1265 55.3474C58.1057 55.3474 58.8603 55.5794 59.3903 56.0434C59.9204 56.5074 60.1854 57.2166 60.1854 58.1708V62.3731H58.9591ZM56.6145 62.4519C56.0845 62.4519 55.6173 62.3644 55.2131 62.1893C54.8178 62.0142 54.5124 61.7734 54.2968 61.467C54.0812 61.1519 53.9734 60.7973 53.9734 60.4033C53.9734 60.0269 54.0632 59.6854 54.2429 59.379C54.4315 59.0726 54.7325 58.8275 55.1457 58.6436C55.5679 58.4598 56.1339 58.3678 56.8436 58.3678H59.1074V59.274H56.8975C56.2507 59.274 55.815 59.379 55.5904 59.5891C55.3658 59.7992 55.2535 60.0531 55.2535 60.3508C55.2535 60.6922 55.3928 60.968 55.6712 61.1781C55.9497 61.3795 56.336 61.4802 56.8301 61.4802C57.3152 61.4802 57.7374 61.3751 58.0967 61.165C58.4651 60.9549 58.7301 60.6485 58.8918 60.2457L59.1478 61.1125C58.9771 61.5239 58.6762 61.8522 58.245 62.0974C57.8138 62.3338 57.2703 62.4519 56.6145 62.4519Z" fill="white"/>
<path d="M61.329 62.36L61.4098 61.2963C61.4727 61.3051 61.5311 61.3138 61.585 61.3226C61.6389 61.3313 61.6883 61.3357 61.7332 61.3357C62.0207 61.3357 62.2453 61.2394 62.407 61.0468C62.5777 60.8542 62.7034 60.6003 62.7843 60.2851C62.8651 59.9612 62.9235 59.5979 62.9594 59.1952C62.9954 58.7924 63.0223 58.3897 63.0403 57.987L63.1616 55.4131H68.6459V62.3731H67.3523V56.1485L67.6622 56.5162H63.997L64.2935 56.1354L64.1992 58.0658C64.1722 58.6786 64.1228 59.2521 64.0509 59.7861C63.9791 60.3201 63.8668 60.7885 63.7141 61.1913C63.5703 61.594 63.3682 61.9091 63.1077 62.1368C62.8561 62.3644 62.5282 62.4782 62.124 62.4782C62.0072 62.4782 61.8814 62.4651 61.7467 62.4388C61.6209 62.4213 61.4817 62.395 61.329 62.36Z" fill="white"/>
<path d="M78.2081 62.3731V55.4131H79.5017V62.3731H78.2081ZM74.3678 57.7769C75.2751 57.7856 75.9623 57.987 76.4294 58.381C76.9056 58.7749 77.1436 59.3309 77.1436 60.0488C77.1436 60.8017 76.8831 61.3839 76.3621 61.7953C75.85 62.1981 75.1134 62.395 74.1522 62.3863L71.1472 62.3731V55.4131H72.4408V57.7637L74.3678 57.7769ZM74.0578 61.4276C74.6328 61.4364 75.0729 61.3226 75.3784 61.0862C75.6838 60.8498 75.8365 60.4996 75.8365 60.0356C75.8365 59.5804 75.6838 59.2477 75.3784 59.0376C75.0819 58.8275 74.6417 58.718 74.0578 58.7093L72.4408 58.683V61.4145L74.0578 61.4276Z" fill="white"/>
<path d="M85.6355 62.3731V55.4131H86.9291V60.4821L91.3085 55.4131H92.4808V62.3731H91.1872V57.3041L86.8213 62.3731H85.6355Z" fill="white"/>
<path d="M101.669 62.4519C100.951 62.4519 100.313 62.2987 99.7559 61.9923C99.1989 61.6859 98.7587 61.2657 98.4353 60.7316C98.1119 60.1888 97.9502 59.576 97.9502 58.8931C97.9502 58.2015 98.1119 57.5887 98.4353 57.0546C98.7587 56.5206 99.1989 56.1047 99.7559 55.8071C100.313 55.5006 100.951 55.3474 101.669 55.3474C102.379 55.3474 103.012 55.5006 103.569 55.8071C104.135 56.1047 104.575 56.5206 104.89 57.0546C105.213 57.5799 105.375 58.1927 105.375 58.8931C105.375 59.5847 105.213 60.1976 104.89 60.7316C104.575 61.2657 104.135 61.6859 103.569 61.9923C103.012 62.2987 102.379 62.4519 101.669 62.4519ZM101.669 61.3488C102.128 61.3488 102.536 61.2482 102.896 61.0468C103.264 60.8454 103.551 60.5609 103.758 60.1932C103.965 59.8167 104.068 59.3834 104.068 58.8931C104.068 58.3941 103.965 57.9651 103.758 57.6062C103.551 57.2385 103.264 56.9539 102.896 56.7526C102.536 56.5512 102.128 56.4505 101.669 56.4505C101.211 56.4505 100.802 56.5512 100.443 56.7526C100.084 56.9539 99.7963 57.2385 99.5807 57.6062C99.3651 57.9651 99.2573 58.3941 99.2573 58.8931C99.2573 59.3834 99.3651 59.8167 99.5807 60.1932C99.7963 60.5609 100.084 60.8454 100.443 61.0468C100.802 61.2482 101.211 61.3488 101.669 61.3488Z" fill="white"/>
<path d="M110.544 62.4782C109.951 62.4782 109.426 62.3863 108.968 62.2024C108.519 62.0186 108.132 61.7472 107.809 61.3882C107.486 61.0205 107.238 60.5609 107.068 60.0094C106.906 59.449 106.825 58.7924 106.825 58.0395C106.825 57.4442 106.879 56.9102 106.987 56.4374C107.095 55.9646 107.247 55.5444 107.445 55.1767C107.652 54.809 107.903 54.4895 108.2 54.2181C108.505 53.9467 108.846 53.7234 109.224 53.5483C109.61 53.3645 110.032 53.2244 110.49 53.1281L113.751 52.4189L113.94 53.5877L110.935 54.2181C110.755 54.2531 110.54 54.3056 110.288 54.3756C110.037 54.4457 109.781 54.5551 109.52 54.7039C109.26 54.844 109.017 55.041 108.793 55.2949C108.568 55.5488 108.388 55.8815 108.254 56.2929C108.119 56.6957 108.051 57.1947 108.051 57.79C108.051 57.9564 108.056 58.0833 108.065 58.1708C108.074 58.2584 108.083 58.3459 108.092 58.4335C108.11 58.521 108.123 58.6524 108.132 58.8275L107.593 58.289C107.737 57.8075 107.966 57.3873 108.281 57.0283C108.595 56.6694 108.972 56.3936 109.412 56.201C109.862 55.9997 110.351 55.899 110.881 55.899C111.546 55.899 112.134 56.0391 112.646 56.3192C113.167 56.5994 113.576 56.9846 113.873 57.4748C114.169 57.9651 114.317 58.5254 114.317 59.1558C114.317 59.7949 114.16 60.3683 113.846 60.8761C113.54 61.3751 113.105 61.7691 112.539 62.058C111.973 62.3381 111.308 62.4782 110.544 62.4782ZM110.666 61.4276C111.124 61.4276 111.528 61.3313 111.878 61.1387C112.229 60.9374 112.503 60.6703 112.7 60.3377C112.898 59.9962 112.997 59.6154 112.997 59.1952C112.997 58.7749 112.898 58.4028 112.7 58.0789C112.503 57.755 112.229 57.5011 111.878 57.3173C111.528 57.1246 111.115 57.0283 110.639 57.0283C110.19 57.0283 109.785 57.1203 109.426 57.3041C109.067 57.4792 108.788 57.7287 108.59 58.0527C108.393 58.3678 108.294 58.7355 108.294 59.1558C108.294 59.576 108.393 59.9612 108.59 60.3114C108.797 60.6528 109.076 60.9242 109.426 61.1256C109.785 61.327 110.198 61.4276 110.666 61.4276Z" fill="white"/>
<path d="M119.224 62.4519C118.505 62.4519 117.867 62.2987 117.31 61.9923C116.753 61.6859 116.313 61.2657 115.99 60.7316C115.666 60.1888 115.505 59.576 115.505 58.8931C115.505 58.2015 115.666 57.5887 115.99 57.0546C116.313 56.5206 116.753 56.1047 117.31 55.8071C117.867 55.5006 118.505 55.3474 119.224 55.3474C119.933 55.3474 120.567 55.5006 121.124 55.8071C121.69 56.1047 122.13 56.5206 122.444 57.0546C122.768 57.5799 122.929 58.1927 122.929 58.8931C122.929 59.5847 122.768 60.1976 122.444 60.7316C122.13 61.2657 121.69 61.6859 121.124 61.9923C120.567 62.2987 119.933 62.4519 119.224 62.4519ZM119.224 61.3488C119.682 61.3488 120.091 61.2482 120.45 61.0468C120.818 60.8454 121.106 60.5609 121.312 60.1932C121.519 59.8167 121.622 59.3834 121.622 58.8931C121.622 58.3941 121.519 57.9651 121.312 57.6062C121.106 57.2385 120.818 56.9539 120.45 56.7526C120.091 56.5512 119.682 56.4505 119.224 56.4505C118.766 56.4505 118.357 56.5512 117.998 56.7526C117.638 56.9539 117.351 57.2385 117.135 57.6062C116.92 57.9651 116.812 58.3941 116.812 58.8931C116.812 59.3834 116.92 59.8167 117.135 60.1932C117.351 60.5609 117.638 60.8454 117.998 61.0468C118.357 61.2482 118.766 61.3488 119.224 61.3488Z" fill="white"/>
<path d="M128.584 62.4519C127.991 62.4519 127.447 62.3206 126.953 62.058C126.468 61.7866 126.077 61.3882 125.781 60.8629C125.494 60.3377 125.35 59.681 125.35 58.8931C125.35 58.1052 125.489 57.4486 125.768 56.9233C126.055 56.398 126.441 56.004 126.926 55.7414C127.421 55.4787 127.973 55.3474 128.584 55.3474C129.285 55.3474 129.904 55.4963 130.443 55.7939C130.982 56.0916 131.409 56.5074 131.724 57.0415C132.038 57.5668 132.195 58.184 132.195 58.8931C132.195 59.6023 132.038 60.2238 131.724 60.7579C131.409 61.2919 130.982 61.7078 130.443 62.0054C129.904 62.3031 129.285 62.4519 128.584 62.4519ZM124.797 64.9208V55.4131H126.037V57.291L125.956 58.9062L126.091 60.5215V64.9208H124.797ZM128.476 61.3488C128.934 61.3488 129.343 61.2482 129.702 61.0468C130.071 60.8454 130.358 60.5609 130.565 60.1932C130.78 59.8167 130.888 59.3834 130.888 58.8931C130.888 58.3941 130.78 57.9651 130.565 57.6062C130.358 57.2385 130.071 56.9539 129.702 56.7526C129.343 56.5512 128.934 56.4505 128.476 56.4505C128.027 56.4505 127.618 56.5512 127.25 56.7526C126.89 56.9539 126.603 57.2385 126.387 57.6062C126.181 57.9651 126.077 58.3941 126.077 58.8931C126.077 59.3834 126.181 59.8167 126.387 60.1932C126.603 60.5609 126.89 60.8454 127.25 61.0468C127.618 61.2482 128.027 61.3488 128.476 61.3488Z" fill="white"/>
<path d="M134.241 64.9996C133.9 64.9996 133.567 64.9427 133.244 64.8289C132.921 64.7238 132.642 64.5662 132.408 64.3561L132.961 63.4106C133.141 63.5769 133.338 63.7039 133.554 63.7914C133.769 63.879 133.999 63.9227 134.241 63.9227C134.555 63.9227 134.816 63.844 135.023 63.6864C135.229 63.5288 135.422 63.2486 135.602 62.8459L136.047 61.8873L136.181 61.7297L138.984 55.4131H140.251L136.788 63.0692C136.581 63.5594 136.348 63.9446 136.087 64.2248C135.836 64.5049 135.557 64.7019 135.252 64.8157C134.946 64.9383 134.609 64.9996 134.241 64.9996ZM135.939 62.5964L132.678 55.4131H134.025L136.801 61.6115L135.939 62.5964Z" fill="white"/>
<path d="M146.085 61.7822V56.5162H142.986L142.918 57.8557C142.9 58.2934 142.869 58.718 142.824 59.1295C142.788 59.5322 142.725 59.9043 142.635 60.2457C142.554 60.5872 142.433 60.8673 142.271 61.0862C142.11 61.3051 141.894 61.4408 141.625 61.4933L140.345 61.27C140.623 61.2788 140.848 61.1913 141.018 61.0074C141.189 60.8148 141.319 60.5522 141.409 60.2195C141.508 59.8868 141.58 59.5103 141.625 59.0901C141.67 58.6611 141.705 58.219 141.732 57.7637L141.84 55.4131H147.378V61.7822H146.085ZM140.062 63.9884V61.27H148.47V63.9884H147.257V62.3731H141.288V63.9884H140.062Z" fill="white"/>
<path d="M153.214 62.4519C152.495 62.4519 151.858 62.2987 151.301 61.9923C150.744 61.6859 150.303 61.2657 149.98 60.7316C149.657 60.1888 149.495 59.576 149.495 58.8931C149.495 58.2015 149.657 57.5887 149.98 57.0546C150.303 56.5206 150.744 56.1047 151.301 55.8071C151.858 55.5006 152.495 55.3474 153.214 55.3474C153.924 55.3474 154.557 55.5006 155.114 55.8071C155.68 56.1047 156.12 56.5206 156.435 57.0546C156.758 57.5799 156.92 58.1927 156.92 58.8931C156.92 59.5847 156.758 60.1976 156.435 60.7316C156.12 61.2657 155.68 61.6859 155.114 61.9923C154.557 62.2987 153.924 62.4519 153.214 62.4519ZM153.214 61.3488C153.672 61.3488 154.081 61.2482 154.44 61.0468C154.809 60.8454 155.096 60.5609 155.303 60.1932C155.509 59.8167 155.613 59.3834 155.613 58.8931C155.613 58.3941 155.509 57.9651 155.303 57.6062C155.096 57.2385 154.809 56.9539 154.44 56.7526C154.081 56.5512 153.672 56.4505 153.214 56.4505C152.756 56.4505 152.347 56.5512 151.988 56.7526C151.628 56.9539 151.341 57.2385 151.125 57.6062C150.91 57.9651 150.802 58.3941 150.802 58.8931C150.802 59.3834 150.91 59.8167 151.125 60.1932C151.341 60.5609 151.628 60.8454 151.988 61.0468C152.347 61.2482 152.756 61.3488 153.214 61.3488Z" fill="white"/>
<path d="M158.788 62.3731V55.4131H162.102C162.938 55.4131 163.594 55.5707 164.07 55.8858C164.555 56.1923 164.798 56.63 164.798 57.1991C164.798 57.7681 164.568 58.2102 164.11 58.5254C163.661 58.8318 163.064 58.985 162.318 58.985L162.52 58.6436C163.374 58.6436 164.007 58.7968 164.42 59.1032C164.833 59.4097 165.04 59.8605 165.04 60.4558C165.04 61.0599 164.806 61.5327 164.339 61.8741C163.881 62.2068 163.176 62.3731 162.224 62.3731H158.788ZM160.054 61.4014H162.129C162.668 61.4014 163.073 61.3226 163.342 61.165C163.612 60.9986 163.746 60.736 163.746 60.3771C163.746 60.0094 163.621 59.7423 163.369 59.576C163.127 59.4009 162.74 59.3133 162.21 59.3133H160.054V61.4014ZM160.054 58.4072H161.995C162.489 58.4072 162.862 58.3197 163.113 58.1446C163.374 57.9607 163.504 57.7068 163.504 57.3829C163.504 57.0502 163.374 56.8007 163.113 56.6344C162.862 56.468 162.489 56.3849 161.995 56.3849H160.054V58.4072Z" fill="white"/>
<path d="M171.444 62.3731V60.9023L171.377 60.6266V58.1183C171.377 57.5843 171.215 57.1728 170.892 56.8839C170.577 56.5862 170.101 56.4374 169.463 56.4374C169.041 56.4374 168.628 56.5074 168.224 56.6475C167.819 56.7788 167.478 56.9583 167.2 57.1859L166.661 56.2404C167.029 55.9515 167.469 55.7326 167.981 55.5838C168.502 55.4262 169.046 55.3474 169.612 55.3474C170.591 55.3474 171.345 55.5794 171.875 56.0434C172.405 56.5074 172.67 57.2166 172.67 58.1708V62.3731H171.444ZM169.1 62.4519C168.57 62.4519 168.102 62.3644 167.698 62.1893C167.303 62.0142 166.997 61.7734 166.782 61.467C166.566 61.1519 166.458 60.7973 166.458 60.4033C166.458 60.0269 166.548 59.6854 166.728 59.379C166.917 59.0726 167.217 58.8275 167.631 58.6436C168.053 58.4598 168.619 58.3678 169.329 58.3678H171.592V59.274H169.382C168.736 59.274 168.3 59.379 168.075 59.5891C167.851 59.7992 167.739 60.0531 167.739 60.3508C167.739 60.6922 167.878 60.968 168.156 61.1781C168.435 61.3795 168.821 61.4802 169.315 61.4802C169.8 61.4802 170.222 61.3751 170.582 61.165C170.95 60.9549 171.215 60.6485 171.377 60.2457L171.633 61.1125C171.462 61.5239 171.161 61.8522 170.73 62.0974C170.299 62.3338 169.755 62.4519 169.1 62.4519Z" fill="white"/>
<path d="M175 62.3731V55.4131H176.293V58.3678H180.363V55.4131H181.656V62.3731H180.363V59.4578H176.293V62.3731H175Z" fill="white"/>
<path d="M184.172 62.3731V55.4131H185.465V60.4821L189.845 55.4131H191.017V62.3731H189.723V57.3041L185.358 62.3731H184.172Z" fill="white"/>
<path d="M196.708 62.4519C195.945 62.4519 195.271 62.2987 194.687 61.9923C194.112 61.6859 193.663 61.2657 193.339 60.7316C193.025 60.1976 192.868 59.5847 192.868 58.8931C192.868 58.2015 193.02 57.5887 193.326 57.0546C193.64 56.5206 194.067 56.1047 194.606 55.8071C195.154 55.5006 195.769 55.3474 196.452 55.3474C197.144 55.3474 197.755 55.4963 198.285 55.7939C198.815 56.0916 199.228 56.5118 199.524 57.0546C199.83 57.5887 199.983 58.2146 199.983 58.9325C199.983 58.985 199.978 59.0463 199.969 59.1164C199.969 59.1864 199.965 59.2521 199.956 59.3133H193.878V58.4072H199.282L198.756 58.7224C198.765 58.2759 198.671 57.8776 198.473 57.5274C198.276 57.1772 198.002 56.9058 197.651 56.7132C197.31 56.5118 196.91 56.4111 196.452 56.4111C196.003 56.4111 195.603 56.5118 195.253 56.7132C194.902 56.9058 194.628 57.1816 194.431 57.5405C194.233 57.8907 194.134 58.2934 194.134 58.7487V58.9588C194.134 59.4228 194.242 59.8386 194.458 60.2063C194.682 60.5653 194.992 60.8454 195.388 61.0468C195.783 61.2482 196.236 61.3488 196.749 61.3488C197.171 61.3488 197.553 61.2788 197.894 61.1387C198.244 60.9986 198.55 60.7885 198.81 60.5084L199.524 61.3226C199.201 61.6903 198.797 61.9704 198.312 62.163C197.835 62.3556 197.301 62.4519 196.708 62.4519Z" fill="white"/>
<path d="M210.486 61.7822V56.5162H207.387L207.319 57.8557C207.301 58.2934 207.27 58.718 207.225 59.1295C207.189 59.5322 207.126 59.9043 207.036 60.2457C206.956 60.5872 206.834 60.8673 206.673 61.0862C206.511 61.3051 206.295 61.4408 206.026 61.4933L204.746 61.27C205.024 61.2788 205.249 61.1913 205.419 61.0074C205.59 60.8148 205.72 60.5522 205.81 60.2195C205.909 59.8868 205.981 59.5103 206.026 59.0901C206.071 58.6611 206.107 58.219 206.134 57.7637L206.241 55.4131H211.78V61.7822H210.486ZM204.463 63.9884V61.27H212.871V63.9884H211.658V62.3731H205.689V63.9884H204.463Z" fill="white"/>
<path d="M213.371 62.36L213.451 61.2963C213.514 61.3051 213.573 61.3138 213.627 61.3226C213.681 61.3313 213.73 61.3357 213.775 61.3357C214.062 61.3357 214.287 61.2394 214.449 61.0468C214.619 60.8542 214.745 60.6003 214.826 60.2851C214.907 59.9612 214.965 59.5979 215.001 59.1952C215.037 58.7924 215.064 58.3897 215.082 57.987L215.203 55.4131H220.688V62.3731H219.394V56.1485L219.704 56.5162H216.039L216.335 56.1354L216.241 58.0658C216.214 58.6786 216.164 59.2521 216.093 59.7861C216.021 60.3201 215.908 60.7885 215.756 61.1913C215.612 61.594 215.41 61.9091 215.149 62.1368C214.898 62.3644 214.57 62.4782 214.166 62.4782C214.049 62.4782 213.923 62.4651 213.788 62.4388C213.663 62.4213 213.523 62.395 213.371 62.36Z" fill="white"/>
<path d="M227.757 62.3731V59.9306L227.959 60.1669H225.682C224.73 60.1669 223.984 59.97 223.445 59.576C222.915 59.182 222.65 58.6086 222.65 57.8557C222.65 57.0502 222.933 56.4418 223.499 56.0303C224.074 55.6188 224.837 55.4131 225.79 55.4131H228.916V62.3731H227.757ZM222.582 62.3731L224.523 59.7073H225.857L223.97 62.3731H222.582ZM227.757 59.5366V56.1616L227.959 56.5162H225.83C225.237 56.5162 224.779 56.6256 224.456 56.8445C224.132 57.0546 223.97 57.4048 223.97 57.8951C223.97 58.8056 224.572 59.2608 225.776 59.2608H227.959L227.757 59.5366Z" fill="white"/>
<path d="M239.492 62.4782C238.773 62.4782 238.108 62.3644 237.497 62.1368C236.896 61.9004 236.37 61.5721 235.921 61.1519C235.481 60.7229 235.135 60.2238 234.883 59.6548C234.632 59.0857 234.506 58.4598 234.506 57.7769C234.506 57.094 234.632 56.468 234.883 55.899C235.135 55.3299 235.485 54.8353 235.934 54.415C236.384 53.9861 236.909 53.6577 237.511 53.4301C238.122 53.1937 238.787 53.0756 239.505 53.0756C240.233 53.0756 240.902 53.1981 241.513 53.4433C242.133 53.6796 242.658 54.0342 243.09 54.507L242.214 55.3343C241.854 54.9666 241.45 54.6952 241.001 54.5201C240.552 54.3362 240.071 54.2443 239.559 54.2443C239.029 54.2443 238.535 54.3319 238.077 54.507C237.628 54.6821 237.237 54.9272 236.905 55.2424C236.572 55.5575 236.312 55.934 236.123 56.3717C235.943 56.8007 235.854 57.2691 235.854 57.7769C235.854 58.2847 235.943 58.7574 236.123 59.1952C236.312 59.6241 236.572 59.9962 236.905 60.3114C237.237 60.6266 237.628 60.8717 238.077 61.0468C238.535 61.2219 239.029 61.3094 239.559 61.3094C240.071 61.3094 240.552 61.2219 241.001 61.0468C241.45 60.8629 241.854 60.5828 242.214 60.2063L243.09 61.0337C242.658 61.5064 242.133 61.8654 241.513 62.1105C240.902 62.3556 240.228 62.4782 239.492 62.4782Z" fill="white"/>
<path d="M251.293 62.3731L247.87 57.8425L248.962 57.1859L252.829 62.3731H251.293ZM244.946 62.3731V53.1806H246.267V62.3731H244.946ZM245.862 58.3284V57.1728H248.921V58.3284H245.862ZM249.083 57.9213L247.843 57.7375L251.225 53.1806H252.667L249.083 57.9213Z" fill="white"/>
<path d="M258.402 62.4782C257.683 62.4782 257.018 62.3644 256.407 62.1368C255.805 61.9004 255.28 61.5721 254.831 61.1519C254.39 60.7229 254.045 60.2238 253.793 59.6548C253.542 59.0857 253.416 58.4598 253.416 57.7769C253.416 57.094 253.542 56.468 253.793 55.899C254.045 55.3299 254.395 54.8353 254.844 54.415C255.293 53.9861 255.819 53.6577 256.421 53.4301C257.032 53.1937 257.696 53.0756 258.415 53.0756C259.143 53.0756 259.812 53.1981 260.423 53.4433C261.043 53.6796 261.568 54.0342 261.999 54.507L261.124 55.3343C260.764 54.9666 260.36 54.6952 259.911 54.5201C259.462 54.3362 258.981 54.2443 258.469 54.2443C257.939 54.2443 257.445 54.3319 256.987 54.507C256.538 54.6821 256.147 54.9272 255.814 55.2424C255.482 55.5575 255.221 55.934 255.033 56.3717C254.853 56.8007 254.763 57.2691 254.763 57.7769C254.763 58.2847 254.853 58.7574 255.033 59.1952C255.221 59.6241 255.482 59.9962 255.814 60.3114C256.147 60.6266 256.538 60.8717 256.987 61.0468C257.445 61.2219 257.939 61.3094 258.469 61.3094C258.981 61.3094 259.462 61.2219 259.911 61.0468C260.36 60.8629 260.764 60.5828 261.124 60.2063L261.999 61.0337C261.568 61.5064 261.043 61.8654 260.423 62.1105C259.812 62.3556 259.138 62.4782 258.402 62.4782Z" fill="white"/>
<path d="M45.7667 0.539171V41.8756H40.4928V0.539171H45.7667Z" fill="white"/>
<path d="M167.204 0.539171V33.4885C167.204 34.8464 167.524 35.8449 168.163 36.4839C168.842 37.1229 169.861 37.4424 171.22 37.4424H186.142L186.382 41.5161C183.785 41.7158 181.128 41.8356 178.411 41.8756C175.734 41.9155 173.058 41.9355 170.381 41.9355C167.344 41.9355 165.187 41.1966 163.908 39.7189C162.63 38.2412 161.99 36.384 161.99 34.1475V0.539171H167.204Z" fill="white"/>
<path d="M261.999 0.539171V39.7788C261.999 41.1767 261.32 41.8756 259.962 41.8756H254.808C254.208 41.8756 253.729 41.7358 253.369 41.4562C253.01 41.1767 252.71 40.7573 252.47 40.1982L238.507 10.9032C238.147 10.1045 237.727 9.20584 237.248 8.20738C236.769 7.20891 236.409 6.29033 236.169 5.45161H235.21C235.29 6.33026 235.35 7.22888 235.39 8.14747C235.43 9.06606 235.45 9.98464 235.45 10.9032V41.8756H230.176V2.63595C230.176 1.2381 230.875 0.539171 232.274 0.539171H237.248C237.847 0.539171 238.327 0.678956 238.686 0.958527C239.046 1.2381 239.346 1.65745 239.585 2.21659L253.13 30.7926C253.569 31.6313 254.029 32.5899 254.508 33.6682C255.027 34.7066 255.507 35.745 255.946 36.7834H256.965C256.925 35.7051 256.885 34.6467 256.845 33.6083C256.805 32.5699 256.785 31.5315 256.785 30.4931V0.539171H261.999Z" fill="white"/>
<path fill-rule="evenodd" clip-rule="evenodd" d="M78.2324 1.13825C76.3146 0.379417 73.6976 0 70.3814 0C68.184 0 66.3062 0.0199702 64.7479 0.0599106C63.1898 0.0599106 61.7514 0.0998487 60.4329 0.179725C59.1145 0.259603 57.6961 0.379419 56.1778 0.539171V41.8756H61.4518V25.3998C61.6087 25.4202 61.7685 25.4405 61.9312 25.4608C63.2097 25.5807 64.6081 25.6805 66.1264 25.7604C67.6846 25.8402 69.3027 25.8802 70.9808 25.8802C74.0972 25.8802 76.5743 25.5207 78.4122 24.8018C80.29 24.043 81.6285 22.725 82.4275 20.8479C83.2666 18.9708 83.6861 16.3349 83.6861 12.9401C83.6861 9.54532 83.2666 6.92934 82.4275 5.09217C81.5885 3.21506 80.1901 1.89708 78.2324 1.13825ZM61.4518 21.3272H63.5493H70.3215C72.3192 21.2873 73.8974 21.0476 75.056 20.6083C76.2547 20.129 77.0937 19.2903 77.5732 18.0922C78.0925 16.8541 78.3522 15.1367 78.3522 12.9401C78.3522 10.7035 78.0925 8.98618 77.5732 7.78802C77.0937 6.58986 76.2547 5.75115 75.056 5.27189C73.8974 4.79263 72.3192 4.553 70.3215 4.553C67.0453 4.553 64.2086 4.57297 61.8113 4.6129C61.6894 4.61497 61.5696 4.61709 61.4518 4.61926V0.539171H56.1778L57.0169 4.79263C57.8125 4.71688 59.2908 4.65909 61.4518 4.61926V21.3272Z" fill="white"/>
<path d="M56.1778 0.539171L57.0169 4.79263C57.8125 4.71688 59.2908 4.65909 61.4518 4.61926V0.539171H56.1778Z" fill="white"/>
<path fill-rule="evenodd" clip-rule="evenodd" d="M105.132 0.479264H99.1389C96.7017 0.479264 94.7639 1.11828 93.3256 2.39631C91.9272 3.67435 91.208 5.43164 91.1681 7.6682V34.7465C91.208 36.9432 91.9272 38.7005 93.3256 40.0184C94.7639 41.2965 96.7017 41.9355 99.1389 41.9355C101.137 41.9355 103.134 41.9155 105.132 41.8756C107.17 41.8756 109.167 41.8556 111.125 41.8157C113.123 41.7757 115.04 41.6959 116.878 41.576L116.639 37.5023H100.038C98.7993 37.5023 97.8803 37.1828 97.281 36.5438C96.7217 35.9048 96.442 34.8863 96.442 33.4885V22.1659H114.301V17.9124H96.442V8.92627C96.442 7.52842 96.7217 6.52996 97.281 5.93088C97.8803 5.29186 98.7993 4.97235 100.038 4.97235H116.639L116.878 0.83871C115.04 0.718896 113.123 0.639019 111.125 0.599081C109.167 0.519203 107.17 0.479264 105.132 0.479264ZM96.442 17.9124H92.2468V22.1659H96.442V17.9124Z" fill="white"/>
<path d="M92.2468 17.9124V22.1659H96.442V17.9124H92.2468Z" fill="white"/>
<path fill-rule="evenodd" clip-rule="evenodd" d="M147.058 1.07834C145.1 0.359447 142.523 0 139.327 0C137.129 0 135.231 0.0199702 133.633 0.0599106C132.075 0.0599106 130.637 0.0998487 129.318 0.179725C128 0.259603 126.581 0.379419 125.063 0.539171V41.8756H130.277V24.5545C131.101 24.5771 132.02 24.5996 133.034 24.6221H139.387C140.785 24.6221 141.924 24.9616 142.803 25.6406C143.682 26.2796 144.381 27.3779 144.9 28.9355L148.556 41.8756H154.19L150.174 28.8157C149.894 27.6575 149.475 26.679 148.916 25.8802C148.356 25.0415 147.737 24.3825 147.058 23.9032C146.418 23.384 145.759 23.0446 145.08 22.8848V22.5853C146.918 22.3456 148.376 21.8264 149.455 21.0277C150.574 20.1889 151.393 19.0307 151.912 17.553C152.432 16.0353 152.691 14.1582 152.691 11.9217C152.691 8.80645 152.232 6.39017 151.313 4.67281C150.434 2.95545 149.015 1.7573 147.058 1.07834ZM125.842 20.0691H130.277V24.5545C129.641 24.5371 129.062 24.5197 128.539 24.5023C127.341 24.4624 126.382 24.4424 125.662 24.4424L125.842 20.0691ZM130.277 4.61993C130.414 4.61766 130.554 4.61532 130.697 4.6129C133.094 4.57297 135.931 4.553 139.207 4.553C141.244 4.553 142.843 4.77266 144.001 5.21198C145.2 5.65131 146.059 6.43011 146.578 7.54839C147.098 8.62673 147.357 10.1843 147.357 12.2212C147.357 14.2581 147.098 15.8556 146.578 17.0138C146.059 18.1321 145.2 18.9109 144.001 19.3502C142.843 19.7896 141.244 20.0292 139.207 20.0691H130.277V4.61993Z" fill="white"/>
<path d="M125.662 24.4424C126.382 24.4424 127.341 24.4624 128.539 24.5023C129.062 24.5197 129.641 24.5371 130.277 24.5545V20.0691H125.842L125.662 24.4424Z" fill="white"/>
<path fill-rule="evenodd" clip-rule="evenodd" d="M210.335 0.958527C209.975 0.678956 209.556 0.539171 209.076 0.539171H203.563C203.083 0.539171 202.664 0.678956 202.304 0.958527C201.945 1.19816 201.705 1.53764 201.585 1.97696L188.28 41.8756H193.734L197.828 28.9355H214.811L218.905 41.8756H224.359L211.054 1.97696C210.934 1.53764 210.694 1.19816 210.335 0.958527ZM213.371 24.3825L208.177 7.96774C208.018 7.4086 207.838 6.84946 207.638 6.29032C207.478 5.69125 207.318 5.13211 207.158 4.6129H205.48C205.321 5.13211 205.161 5.69125 205.001 6.29032C204.841 6.84946 204.661 7.4086 204.462 7.96774L199.268 24.3825H195.772V28.9355H197.828L199.268 24.3825H213.371Z" fill="white"/>
<path d="M195.772 24.3825V28.9355H197.828L199.268 24.3825H195.772Z" fill="white"/>
<path fill-rule="evenodd" clip-rule="evenodd" d="M5.73485 17.4931V0.539171H0.460938V41.8756H5.73485V22.0461H24.7928V41.8756H30.0668V0.539171H24.7928V17.4931H5.73485ZM5.73485 17.4931V22.0461H5.2554V17.4931H5.73485Z" fill="white"/>
<path d="M5.2554 17.4931V22.0461H5.73485V17.4931H5.2554Z" fill="white"/>
</svg>
