<svg width="340" height="65" viewBox="0 0 340 65" fill="none" xmlns="http://www.w3.org/2000/svg">
<g clip-path="url(#clip0_10_1983)">
<rect width="62.7692" height="62.9032" fill="white"/>
<path d="M62.7693 62.9034V38.1545L38.0732 62.9034H62.7693Z" fill="#42A9DE"/>
<path d="M-4.57764e-05 62.9034V38.1545L24.696 62.9034H-4.57764e-05Z" fill="#8BC444"/>
<path d="M-4.76837e-05 -3.24249e-05V24.7488L24.696 -3.24249e-05H-4.76837e-05Z" fill="#FBC02F"/>
<path d="M62.7693 -3.24249e-05V24.7488L38.0732 -3.24249e-05H62.7693Z" fill="#F44B61"/>
<path d="M29.8408 20.2031L42.6089 32.9984L62.7689 12.7953L50.0009 0L29.8408 20.2031Z" fill="#F44B61"/>
<path d="M0 50.1079L12.768 62.9032L32.9281 42.7001L20.1601 29.9048L0 50.1079Z" fill="#8BC444"/>
</g>
<path d="M78.4619 62.3736V53.1811H79.5669L83.798 60.128H83.2051L87.3824 53.1811H88.4873L88.5008 62.3736H87.2072L87.1937 55.1641H87.5037L83.7846 61.2574H83.1647L79.4186 55.1641H79.7555V62.3736H78.4619Z" fill="#1A1D1E"/>
<path d="M95.6007 62.3736V60.9028L95.5333 60.6271V58.1188C95.5333 57.5848 95.3716 57.1733 95.0482 56.8844C94.7338 56.5867 94.2577 56.4379 93.6199 56.4379C93.1976 56.4379 92.7844 56.5079 92.3802 56.648C91.9759 56.7793 91.6345 56.9588 91.3561 57.1864L90.8171 56.2409C91.1854 55.952 91.6256 55.7331 92.1376 55.5843C92.6586 55.4267 93.2021 55.3479 93.7681 55.3479C94.7473 55.3479 95.5019 55.5799 96.0319 56.0439C96.5619 56.5079 96.8269 57.2171 96.8269 58.1713V62.3736H95.6007ZM93.256 62.4524C92.726 62.4524 92.2589 62.3649 91.8546 62.1898C91.4594 62.0147 91.1539 61.7739 90.9383 61.4675C90.7227 61.1523 90.6149 60.7978 90.6149 60.4038C90.6149 60.0274 90.7048 59.6859 90.8844 59.3795C91.0731 59.0731 91.374 58.8279 91.7873 58.6441C92.2095 58.4602 92.7754 58.3683 93.4851 58.3683H95.7489V59.2744H93.539C92.8922 59.2744 92.4565 59.3795 92.2319 59.5896C92.0073 59.7997 91.8951 60.0536 91.8951 60.3513C91.8951 60.6927 92.0343 60.9685 92.3128 61.1786C92.5913 61.38 92.9776 61.4806 93.4716 61.4806C93.9567 61.4806 94.379 61.3756 94.7383 61.1655C95.1066 60.9554 95.3716 60.6489 95.5333 60.2462L95.7893 61.1129C95.6187 61.5244 95.3177 61.8527 94.8865 62.0979C94.4553 62.3342 93.9118 62.4524 93.256 62.4524Z" fill="#1A1D1E"/>
<path d="M100.571 62.3736V56.1884L100.895 56.5167H97.957V55.4136H104.479V56.5167H101.555L101.865 56.1884V62.3736H100.571Z" fill="#1A1D1E"/>
<path d="M108.666 62.4524C107.902 62.4524 107.229 62.2992 106.645 61.9928C106.07 61.6864 105.621 61.2662 105.297 60.7321C104.983 60.1981 104.826 59.5852 104.826 58.8936C104.826 58.202 104.978 57.5891 105.284 57.0551C105.598 56.5211 106.025 56.1052 106.564 55.8075C107.112 55.5011 107.727 55.3479 108.41 55.3479C109.102 55.3479 109.713 55.4967 110.243 55.7944C110.773 56.0921 111.186 56.5123 111.482 57.0551C111.788 57.5891 111.94 58.2151 111.94 58.933C111.94 58.9855 111.936 59.0468 111.927 59.1169C111.927 59.1869 111.922 59.2526 111.913 59.3138H105.836V58.4077H111.24L110.714 58.7229C110.723 58.2764 110.629 57.878 110.431 57.5279C110.234 57.1777 109.96 56.9063 109.609 56.7137C109.268 56.5123 108.868 56.4116 108.41 56.4116C107.961 56.4116 107.561 56.5123 107.211 56.7137C106.86 56.9063 106.586 57.182 106.389 57.541C106.191 57.8912 106.092 58.2939 106.092 58.7492V58.9593C106.092 59.4233 106.2 59.8391 106.416 60.2068C106.64 60.5658 106.95 60.8459 107.345 61.0473C107.741 61.2486 108.194 61.3493 108.706 61.3493C109.129 61.3493 109.51 61.2793 109.852 61.1392C110.202 60.9991 110.508 60.789 110.768 60.5089L111.482 61.3231C111.159 61.6908 110.755 61.9709 110.27 62.1635C109.793 62.3561 109.259 62.4524 108.666 62.4524Z" fill="#1A1D1E"/>
<path d="M117.734 62.4524C117.141 62.4524 116.597 62.3211 116.103 62.0585C115.618 61.7871 115.227 61.3887 114.931 60.8634C114.643 60.3381 114.5 59.6815 114.5 58.8936C114.5 58.1057 114.639 57.4491 114.917 56.9238C115.205 56.3985 115.591 56.0045 116.076 55.7419C116.57 55.4792 117.123 55.3479 117.734 55.3479C118.434 55.3479 119.054 55.4967 119.593 55.7944C120.132 56.0921 120.559 56.5079 120.873 57.042C121.188 57.5673 121.345 58.1845 121.345 58.8936C121.345 59.6027 121.188 60.2243 120.873 60.7584C120.559 61.2924 120.132 61.7083 119.593 62.0059C119.054 62.3036 118.434 62.4524 117.734 62.4524ZM113.947 64.9213V55.4136H115.187V57.2915L115.106 58.9067L115.241 60.522V64.9213H113.947ZM117.626 61.3493C118.084 61.3493 118.493 61.2486 118.852 61.0473C119.221 60.8459 119.508 60.5614 119.715 60.1937C119.93 59.8172 120.038 59.3839 120.038 58.8936C120.038 58.3946 119.93 57.9656 119.715 57.6067C119.508 57.2389 119.221 56.9544 118.852 56.7531C118.493 56.5517 118.084 56.451 117.626 56.451C117.177 56.451 116.768 56.5517 116.4 56.7531C116.04 56.9544 115.753 57.2389 115.537 57.6067C115.331 57.9656 115.227 58.3946 115.227 58.8936C115.227 59.3839 115.331 59.8172 115.537 60.1937C115.753 60.5614 116.04 60.8459 116.4 61.0473C116.768 61.2486 117.177 61.3493 117.626 61.3493Z" fill="#1A1D1E"/>
<path d="M123.225 62.3736V55.4136H124.518V60.4826L128.898 55.4136H130.07V62.3736H128.776V57.3046L124.41 62.3736H123.225Z" fill="#1A1D1E"/>
<path d="M136.96 62.3736V60.9028L136.893 60.6271V58.1188C136.893 57.5848 136.731 57.1733 136.408 56.8844C136.093 56.5867 135.617 56.4379 134.979 56.4379C134.557 56.4379 134.144 56.5079 133.74 56.648C133.335 56.7793 132.994 56.9588 132.715 57.1864L132.176 56.2409C132.545 55.952 132.985 55.7331 133.497 55.5843C134.018 55.4267 134.562 55.3479 135.128 55.3479C136.107 55.3479 136.861 55.5799 137.391 56.0439C137.921 56.5079 138.186 57.2171 138.186 58.1713V62.3736H136.96ZM134.615 62.4524C134.085 62.4524 133.618 62.3649 133.214 62.1898C132.819 62.0147 132.513 61.7739 132.298 61.4675C132.082 61.1523 131.974 60.7978 131.974 60.4038C131.974 60.0274 132.064 59.6859 132.244 59.3795C132.433 59.0731 132.733 58.8279 133.147 58.6441C133.569 58.4602 134.135 58.3683 134.845 58.3683H137.108V59.2744H134.898C134.252 59.2744 133.816 59.3795 133.591 59.5896C133.367 59.7997 133.254 60.0536 133.254 60.3513C133.254 60.6927 133.394 60.9685 133.672 61.1786C133.951 61.38 134.337 61.4806 134.831 61.4806C135.316 61.4806 135.738 61.3756 136.098 61.1655C136.466 60.9554 136.731 60.6489 136.893 60.2462L137.149 61.1129C136.978 61.5244 136.677 61.8527 136.246 62.0979C135.815 62.3342 135.271 62.4524 134.615 62.4524Z" fill="#1A1D1E"/>
<path d="M139.33 62.3605L139.411 61.2968C139.474 61.3056 139.532 61.3143 139.586 61.3231C139.64 61.3318 139.689 61.3362 139.734 61.3362C140.022 61.3362 140.246 61.2399 140.408 61.0473C140.579 60.8547 140.704 60.6008 140.785 60.2856C140.866 59.9617 140.924 59.5984 140.96 59.1956C140.996 58.7929 141.023 58.3902 141.041 57.9875L141.163 55.4136H146.647V62.3736H145.353V56.149L145.663 56.5167H141.998L142.294 56.1358L142.2 58.0663C142.173 58.6791 142.124 59.2526 142.052 59.7866C141.98 60.3206 141.868 60.789 141.715 61.1917C141.571 61.5945 141.369 61.9096 141.109 62.1373C140.857 62.3649 140.529 62.4787 140.125 62.4787C140.008 62.4787 139.882 62.4656 139.748 62.4393C139.622 62.4218 139.483 62.3955 139.33 62.3605Z" fill="#1A1D1E"/>
<path d="M156.209 62.3736V55.4136H157.503V62.3736H156.209ZM152.369 57.7774C153.276 57.7861 153.963 57.9875 154.43 58.3814C154.907 58.7754 155.145 59.3313 155.145 60.0492C155.145 60.8022 154.884 61.3843 154.363 61.7958C153.851 62.1985 153.114 62.3955 152.153 62.3868L149.148 62.3736V55.4136H150.442V57.7642L152.369 57.7774ZM152.059 61.4281C152.634 61.4369 153.074 61.3231 153.379 61.0867C153.685 60.8503 153.838 60.5001 153.838 60.0361C153.838 59.5809 153.685 59.2482 153.379 59.0381C153.083 58.8279 152.643 58.7185 152.059 58.7098L150.442 58.6835V61.415L152.059 61.4281Z" fill="#1A1D1E"/>
<path d="M163.636 62.3736V55.4136H164.93V60.4826L169.309 55.4136H170.482V62.3736H169.188V57.3046L164.822 62.3736H163.636Z" fill="#1A1D1E"/>
<path d="M179.67 62.4524C178.952 62.4524 178.314 62.2992 177.757 61.9928C177.2 61.6864 176.76 61.2662 176.436 60.7321C176.113 60.1893 175.951 59.5765 175.951 58.8936C175.951 58.202 176.113 57.5891 176.436 57.0551C176.76 56.5211 177.2 56.1052 177.757 55.8075C178.314 55.5011 178.952 55.3479 179.67 55.3479C180.38 55.3479 181.013 55.5011 181.57 55.8075C182.136 56.1052 182.576 56.5211 182.891 57.0551C183.214 57.5804 183.376 58.1932 183.376 58.8936C183.376 59.5852 183.214 60.1981 182.891 60.7321C182.576 61.2662 182.136 61.6864 181.57 61.9928C181.013 62.2992 180.38 62.4524 179.67 62.4524ZM179.67 61.3493C180.128 61.3493 180.537 61.2486 180.897 61.0473C181.265 60.8459 181.552 60.5614 181.759 60.1937C181.966 59.8172 182.069 59.3839 182.069 58.8936C182.069 58.3946 181.966 57.9656 181.759 57.6067C181.552 57.2389 181.265 56.9544 180.897 56.7531C180.537 56.5517 180.128 56.451 179.67 56.451C179.212 56.451 178.803 56.5517 178.444 56.7531C178.085 56.9544 177.797 57.2389 177.582 57.6067C177.366 57.9656 177.258 58.3946 177.258 58.8936C177.258 59.3839 177.366 59.8172 177.582 60.1937C177.797 60.5614 178.085 60.8459 178.444 61.0473C178.803 61.2486 179.212 61.3493 179.67 61.3493Z" fill="#1A1D1E"/>
<path d="M188.545 62.4787C187.952 62.4787 187.427 62.3868 186.969 62.2029C186.52 62.0191 186.133 61.7477 185.81 61.3887C185.486 61.021 185.239 60.5614 185.069 60.0098C184.907 59.4495 184.826 58.7929 184.826 58.04C184.826 57.4447 184.88 56.9106 184.988 56.4379C185.096 55.9651 185.248 55.5449 185.446 55.1772C185.653 54.8095 185.904 54.4899 186.201 54.2185C186.506 53.9471 186.847 53.7239 187.225 53.5488C187.611 53.365 188.033 53.2249 188.491 53.1286L191.752 52.4194L191.941 53.5882L188.936 54.2185C188.756 54.2536 188.541 54.3061 188.289 54.3761C188.038 54.4462 187.782 54.5556 187.521 54.7044C187.261 54.8445 187.018 55.0415 186.794 55.2954C186.569 55.5493 186.389 55.882 186.255 56.2934C186.12 56.6962 186.052 57.1952 186.052 57.7905C186.052 57.9568 186.057 58.0838 186.066 58.1713C186.075 58.2589 186.084 58.3464 186.093 58.434C186.111 58.5215 186.124 58.6528 186.133 58.8279L185.594 58.2895C185.738 57.808 185.967 57.3878 186.282 57.0288C186.596 56.6699 186.973 56.3941 187.413 56.2015C187.863 56.0001 188.352 55.8995 188.882 55.8995C189.547 55.8995 190.135 56.0395 190.647 56.3197C191.168 56.5998 191.577 56.9851 191.874 57.4753C192.17 57.9656 192.318 58.5259 192.318 59.1562C192.318 59.7953 192.161 60.3688 191.847 60.8766C191.541 61.3756 191.106 61.7696 190.54 62.0585C189.974 62.3386 189.309 62.4787 188.545 62.4787ZM188.667 61.4281C189.125 61.4281 189.529 61.3318 189.879 61.1392C190.23 60.9379 190.504 60.6708 190.701 60.3381C190.899 59.9967 190.998 59.6159 190.998 59.1956C190.998 58.7754 190.899 58.4033 190.701 58.0794C190.504 57.7555 190.23 57.5016 189.879 57.3177C189.529 57.1251 189.116 57.0288 188.64 57.0288C188.19 57.0288 187.786 57.1208 187.427 57.3046C187.068 57.4797 186.789 57.7292 186.591 58.0531C186.394 58.3683 186.295 58.736 186.295 59.1562C186.295 59.5765 186.394 59.9617 186.591 60.3119C186.798 60.6533 187.077 60.9247 187.427 61.1261C187.786 61.3274 188.199 61.4281 188.667 61.4281Z" fill="#1A1D1E"/>
<path d="M197.225 62.4524C196.506 62.4524 195.868 62.2992 195.311 61.9928C194.754 61.6864 194.314 61.2662 193.991 60.7321C193.667 60.1893 193.506 59.5765 193.506 58.8936C193.506 58.202 193.667 57.5891 193.991 57.0551C194.314 56.5211 194.754 56.1052 195.311 55.8075C195.868 55.5011 196.506 55.3479 197.225 55.3479C197.934 55.3479 198.568 55.5011 199.125 55.8075C199.691 56.1052 200.131 56.5211 200.445 57.0551C200.769 57.5804 200.93 58.1932 200.93 58.8936C200.93 59.5852 200.769 60.1981 200.445 60.7321C200.131 61.2662 199.691 61.6864 199.125 61.9928C198.568 62.2992 197.934 62.4524 197.225 62.4524ZM197.225 61.3493C197.683 61.3493 198.092 61.2486 198.451 61.0473C198.819 60.8459 199.107 60.5614 199.313 60.1937C199.52 59.8172 199.623 59.3839 199.623 58.8936C199.623 58.3946 199.52 57.9656 199.313 57.6067C199.107 57.2389 198.819 56.9544 198.451 56.7531C198.092 56.5517 197.683 56.451 197.225 56.451C196.767 56.451 196.358 56.5517 195.998 56.7531C195.639 56.9544 195.352 57.2389 195.136 57.6067C194.92 57.9656 194.813 58.3946 194.813 58.8936C194.813 59.3839 194.92 59.8172 195.136 60.1937C195.352 60.5614 195.639 60.8459 195.998 61.0473C196.358 61.2486 196.767 61.3493 197.225 61.3493Z" fill="#1A1D1E"/>
<path d="M206.585 62.4524C205.992 62.4524 205.448 62.3211 204.954 62.0585C204.469 61.7871 204.078 61.3887 203.782 60.8634C203.495 60.3381 203.351 59.6815 203.351 58.8936C203.351 58.1057 203.49 57.4491 203.769 56.9238C204.056 56.3985 204.442 56.0045 204.927 55.7419C205.421 55.4792 205.974 55.3479 206.585 55.3479C207.286 55.3479 207.905 55.4967 208.444 55.7944C208.983 56.0921 209.41 56.5079 209.725 57.042C210.039 57.5673 210.196 58.1845 210.196 58.8936C210.196 59.6027 210.039 60.2243 209.725 60.7584C209.41 61.2924 208.983 61.7083 208.444 62.0059C207.905 62.3036 207.286 62.4524 206.585 62.4524ZM202.798 64.9213V55.4136H204.038V57.2915L203.957 58.9067L204.092 60.522V64.9213H202.798ZM206.477 61.3493C206.935 61.3493 207.344 61.2486 207.703 61.0473C208.072 60.8459 208.359 60.5614 208.566 60.1937C208.781 59.8172 208.889 59.3839 208.889 58.8936C208.889 58.3946 208.781 57.9656 208.566 57.6067C208.359 57.2389 208.072 56.9544 207.703 56.7531C207.344 56.5517 206.935 56.451 206.477 56.451C206.028 56.451 205.619 56.5517 205.251 56.7531C204.891 56.9544 204.604 57.2389 204.388 57.6067C204.182 57.9656 204.078 58.3946 204.078 58.8936C204.078 59.3839 204.182 59.8172 204.388 60.1937C204.604 60.5614 204.891 60.8459 205.251 61.0473C205.619 61.2486 206.028 61.3493 206.477 61.3493Z" fill="#1A1D1E"/>
<path d="M212.242 65.0001C211.901 65.0001 211.568 64.9432 211.245 64.8294C210.921 64.7243 210.643 64.5667 210.409 64.3566L210.962 63.4111C211.142 63.5774 211.339 63.7044 211.555 63.7919C211.77 63.8795 211.999 63.9232 212.242 63.9232C212.556 63.9232 212.817 63.8444 213.024 63.6869C213.23 63.5293 213.423 63.2491 213.603 62.8464L214.048 61.8877L214.182 61.7302L216.985 55.4136H218.252L214.789 63.0696C214.582 63.5599 214.349 63.9451 214.088 64.2253C213.837 64.5054 213.558 64.7024 213.253 64.8162C212.947 64.9388 212.61 65.0001 212.242 65.0001ZM213.94 62.5969L210.679 55.4136H212.026L214.802 61.612L213.94 62.5969Z" fill="#1A1D1E"/>
<path d="M224.086 61.7827V56.5167H220.987L220.919 57.8562C220.901 58.2939 220.87 58.7185 220.825 59.13C220.789 59.5327 220.726 59.9048 220.636 60.2462C220.555 60.5877 220.434 60.8678 220.272 61.0867C220.111 61.3056 219.895 61.4413 219.626 61.4938L218.345 61.2705C218.624 61.2793 218.849 61.1917 219.019 61.0079C219.19 60.8153 219.32 60.5526 219.41 60.22C219.509 59.8873 219.581 59.5108 219.626 59.0906C219.671 58.6616 219.706 58.2195 219.733 57.7642L219.841 55.4136H225.379V61.7827H224.086ZM218.063 63.9889V61.2705H226.471V63.9889H225.258V62.3736H219.289V63.9889H218.063Z" fill="#1A1D1E"/>
<path d="M231.215 62.4524C230.496 62.4524 229.859 62.2992 229.302 61.9928C228.745 61.6864 228.304 61.2662 227.981 60.7321C227.658 60.1893 227.496 59.5765 227.496 58.8936C227.496 58.202 227.658 57.5891 227.981 57.0551C228.304 56.5211 228.745 56.1052 229.302 55.8075C229.859 55.5011 230.496 55.3479 231.215 55.3479C231.925 55.3479 232.558 55.5011 233.115 55.8075C233.681 56.1052 234.121 56.5211 234.436 57.0551C234.759 57.5804 234.921 58.1932 234.921 58.8936C234.921 59.5852 234.759 60.1981 234.436 60.7321C234.121 61.2662 233.681 61.6864 233.115 61.9928C232.558 62.2992 231.925 62.4524 231.215 62.4524ZM231.215 61.3493C231.673 61.3493 232.082 61.2486 232.441 61.0473C232.81 60.8459 233.097 60.5614 233.304 60.1937C233.51 59.8172 233.614 59.3839 233.614 58.8936C233.614 58.3946 233.51 57.9656 233.304 57.6067C233.097 57.2389 232.81 56.9544 232.441 56.7531C232.082 56.5517 231.673 56.451 231.215 56.451C230.757 56.451 230.348 56.5517 229.989 56.7531C229.629 56.9544 229.342 57.2389 229.126 57.6067C228.911 57.9656 228.803 58.3946 228.803 58.8936C228.803 59.3839 228.911 59.8172 229.126 60.1937C229.342 60.5614 229.629 60.8459 229.989 61.0473C230.348 61.2486 230.757 61.3493 231.215 61.3493Z" fill="#1A1D1E"/>
<path d="M236.789 62.3736V55.4136H240.103C240.939 55.4136 241.595 55.5712 242.071 55.8863C242.556 56.1928 242.798 56.6305 242.798 57.1996C242.798 57.7686 242.569 58.2107 242.111 58.5259C241.662 58.8323 241.065 58.9855 240.319 58.9855L240.521 58.6441C241.375 58.6441 242.008 58.7973 242.421 59.1037C242.834 59.4101 243.041 59.861 243.041 60.4563C243.041 61.0604 242.807 61.5332 242.34 61.8746C241.882 62.2073 241.177 62.3736 240.225 62.3736H236.789ZM238.055 61.4019H240.13C240.669 61.4019 241.074 61.3231 241.343 61.1655C241.613 60.9991 241.747 60.7365 241.747 60.3775C241.747 60.0098 241.622 59.7428 241.37 59.5765C241.128 59.4014 240.741 59.3138 240.211 59.3138H238.055V61.4019ZM238.055 58.4077H239.996C240.49 58.4077 240.863 58.3202 241.114 58.1451C241.375 57.9612 241.505 57.7073 241.505 57.3834C241.505 57.0507 241.375 56.8012 241.114 56.6349C240.863 56.4685 240.49 56.3854 239.996 56.3854H238.055V58.4077Z" fill="#1A1D1E"/>
<path d="M249.445 62.3736V60.9028L249.378 60.6271V58.1188C249.378 57.5848 249.216 57.1733 248.893 56.8844C248.578 56.5867 248.102 56.4379 247.464 56.4379C247.042 56.4379 246.629 56.5079 246.225 56.648C245.82 56.7793 245.479 56.9588 245.201 57.1864L244.661 56.2409C245.03 55.952 245.47 55.7331 245.982 55.5843C246.503 55.4267 247.047 55.3479 247.613 55.3479C248.592 55.3479 249.346 55.5799 249.876 56.0439C250.406 56.5079 250.671 57.2171 250.671 58.1713V62.3736H249.445ZM247.1 62.4524C246.57 62.4524 246.103 62.3649 245.699 62.1898C245.304 62.0147 244.998 61.7739 244.783 61.4675C244.567 61.1523 244.459 60.7978 244.459 60.4038C244.459 60.0274 244.549 59.6859 244.729 59.3795C244.918 59.0731 245.218 58.8279 245.632 58.6441C246.054 58.4602 246.62 58.3683 247.33 58.3683H249.593V59.2744H247.383C246.737 59.2744 246.301 59.3795 246.076 59.5896C245.852 59.7997 245.74 60.0536 245.74 60.3513C245.74 60.6927 245.879 60.9685 246.157 61.1786C246.436 61.38 246.822 61.4806 247.316 61.4806C247.801 61.4806 248.223 61.3756 248.583 61.1655C248.951 60.9554 249.216 60.6489 249.378 60.2462L249.634 61.1129C249.463 61.5244 249.162 61.8527 248.731 62.0979C248.3 62.3342 247.756 62.4524 247.1 62.4524Z" fill="#1A1D1E"/>
<path d="M253.001 62.3736V55.4136H254.294V58.3683H258.364V55.4136H259.657V62.3736H258.364V59.4583H254.294V62.3736H253.001Z" fill="#1A1D1E"/>
<path d="M262.173 62.3736V55.4136H263.466V60.4826L267.846 55.4136H269.018V62.3736H267.724V57.3046L263.359 62.3736H262.173Z" fill="#1A1D1E"/>
<path d="M274.709 62.4524C273.945 62.4524 273.272 62.2992 272.688 61.9928C272.113 61.6864 271.664 61.2662 271.34 60.7321C271.026 60.1981 270.869 59.5852 270.869 58.8936C270.869 58.202 271.021 57.5891 271.327 57.0551C271.641 56.5211 272.068 56.1052 272.607 55.8075C273.155 55.5011 273.77 55.3479 274.453 55.3479C275.145 55.3479 275.756 55.4967 276.286 55.7944C276.816 56.0921 277.229 56.5123 277.525 57.0551C277.831 57.5891 277.983 58.2151 277.983 58.933C277.983 58.9855 277.979 59.0468 277.97 59.1169C277.97 59.1869 277.966 59.2526 277.957 59.3138H271.879V58.4077H277.283L276.757 58.7229C276.766 58.2764 276.672 57.878 276.474 57.5279C276.277 57.1777 276.003 56.9063 275.652 56.7137C275.311 56.5123 274.911 56.4116 274.453 56.4116C274.004 56.4116 273.604 56.5123 273.254 56.7137C272.903 56.9063 272.629 57.182 272.432 57.541C272.234 57.8912 272.135 58.2939 272.135 58.7492V58.9593C272.135 59.4233 272.243 59.8391 272.459 60.2068C272.683 60.5658 272.993 60.8459 273.389 61.0473C273.784 61.2486 274.237 61.3493 274.749 61.3493C275.172 61.3493 275.553 61.2793 275.895 61.1392C276.245 60.9991 276.551 60.789 276.811 60.5089L277.525 61.3231C277.202 61.6908 276.798 61.9709 276.313 62.1635C275.836 62.3561 275.302 62.4524 274.709 62.4524Z" fill="#1A1D1E"/>
<path d="M288.487 61.7827V56.5167H285.388L285.32 57.8562C285.302 58.2939 285.271 58.7185 285.226 59.13C285.19 59.5327 285.127 59.9048 285.037 60.2462C284.957 60.5877 284.835 60.8678 284.674 61.0867C284.512 61.3056 284.296 61.4413 284.027 61.4938L282.747 61.2705C283.025 61.2793 283.25 61.1917 283.42 61.0079C283.591 60.8153 283.721 60.5526 283.811 60.22C283.91 59.8873 283.982 59.5108 284.027 59.0906C284.072 58.6616 284.108 58.2195 284.135 57.7642L284.242 55.4136H289.781V61.7827H288.487ZM282.464 63.9889V61.2705H290.872V63.9889H289.659V62.3736H283.69V63.9889H282.464Z" fill="#1A1D1E"/>
<path d="M291.372 62.3605L291.452 61.2968C291.515 61.3056 291.574 61.3143 291.628 61.3231C291.682 61.3318 291.731 61.3362 291.776 61.3362C292.063 61.3362 292.288 61.2399 292.45 61.0473C292.62 60.8547 292.746 60.6008 292.827 60.2856C292.908 59.9617 292.966 59.5984 293.002 59.1956C293.038 58.7929 293.065 58.3902 293.083 57.9875L293.204 55.4136H298.689V62.3736H297.395V56.149L297.705 56.5167H294.04L294.336 56.1358L294.242 58.0663C294.215 58.6791 294.165 59.2526 294.094 59.7866C294.022 60.3206 293.909 60.789 293.757 61.1917C293.613 61.5945 293.411 61.9096 293.15 62.1373C292.899 62.3649 292.571 62.4787 292.167 62.4787C292.05 62.4787 291.924 62.4656 291.789 62.4393C291.664 62.4218 291.524 62.3955 291.372 62.3605Z" fill="#1A1D1E"/>
<path d="M305.758 62.3736V59.931L305.96 60.1674H303.683C302.73 60.1674 301.985 59.9704 301.446 59.5765C300.916 59.1825 300.651 58.6091 300.651 57.8562C300.651 57.0507 300.934 56.4423 301.5 56.0308C302.075 55.6193 302.838 55.4136 303.791 55.4136H306.917V62.3736H305.758ZM300.583 62.3736L302.524 59.7078H303.858L301.971 62.3736H300.583ZM305.758 59.5371V56.1621L305.96 56.5167H303.831C303.238 56.5167 302.78 56.6261 302.456 56.845C302.133 57.0551 301.971 57.4053 301.971 57.8956C301.971 58.8061 302.573 59.2613 303.777 59.2613H305.96L305.758 59.5371Z" fill="#1A1D1E"/>
<path d="M317.493 62.4787C316.774 62.4787 316.109 62.3649 315.498 62.1373C314.897 61.9009 314.371 61.5726 313.922 61.1523C313.482 60.7234 313.136 60.2243 312.884 59.6553C312.633 59.0862 312.507 58.4602 312.507 57.7774C312.507 57.0945 312.633 56.4685 312.884 55.8995C313.136 55.3304 313.486 54.8358 313.935 54.4155C314.384 53.9865 314.91 53.6582 315.512 53.4306C316.123 53.1942 316.788 53.076 317.506 53.076C318.234 53.076 318.903 53.1986 319.514 53.4437C320.134 53.6801 320.659 54.0347 321.091 54.5075L320.215 55.3348C319.855 54.9671 319.451 54.6957 319.002 54.5206C318.553 54.3367 318.072 54.2448 317.56 54.2448C317.03 54.2448 316.536 54.3324 316.078 54.5075C315.629 54.6825 315.238 54.9277 314.906 55.2429C314.573 55.558 314.313 55.9345 314.124 56.3722C313.944 56.8012 313.854 57.2696 313.854 57.7774C313.854 58.2851 313.944 58.7579 314.124 59.1956C314.313 59.6246 314.573 59.9967 314.906 60.3119C315.238 60.6271 315.629 60.8722 316.078 61.0473C316.536 61.2224 317.03 61.3099 317.56 61.3099C318.072 61.3099 318.553 61.2224 319.002 61.0473C319.451 60.8634 319.855 60.5833 320.215 60.2068L321.091 61.0342C320.659 61.5069 320.134 61.8659 319.514 62.111C318.903 62.3561 318.229 62.4787 317.493 62.4787Z" fill="#1A1D1E"/>
<path d="M329.294 62.3736L325.871 57.843L326.963 57.1864L330.83 62.3736H329.294ZM322.947 62.3736V53.1811H324.268V62.3736H322.947ZM323.863 58.3289V57.1733H326.922V58.3289H323.863ZM327.084 57.9218L325.844 57.738L329.226 53.1811H330.668L327.084 57.9218Z" fill="#1A1D1E"/>
<path d="M336.403 62.4787C335.684 62.4787 335.019 62.3649 334.408 62.1373C333.806 61.9009 333.281 61.5726 332.832 61.1523C332.391 60.7234 332.046 60.2243 331.794 59.6553C331.543 59.0862 331.417 58.4602 331.417 57.7774C331.417 57.0945 331.543 56.4685 331.794 55.8995C332.046 55.3304 332.396 54.8358 332.845 54.4155C333.294 53.9865 333.82 53.6582 334.422 53.4306C335.033 53.1942 335.697 53.076 336.416 53.076C337.144 53.076 337.813 53.1986 338.424 53.4437C339.044 53.6801 339.569 54.0347 340 54.5075L339.125 55.3348C338.765 54.9671 338.361 54.6957 337.912 54.5206C337.463 54.3367 336.982 54.2448 336.47 54.2448C335.94 54.2448 335.446 54.3324 334.988 54.5075C334.538 54.6825 334.148 54.9277 333.815 55.2429C333.483 55.558 333.222 55.9345 333.034 56.3722C332.854 56.8012 332.764 57.2696 332.764 57.7774C332.764 58.2851 332.854 58.7579 333.034 59.1956C333.222 59.6246 333.483 59.9967 333.815 60.3119C334.148 60.6271 334.538 60.8722 334.988 61.0473C335.446 61.2224 335.94 61.3099 336.47 61.3099C336.982 61.3099 337.463 61.2224 337.912 61.0473C338.361 60.8634 338.765 60.5833 339.125 60.2068L340 61.0342C339.569 61.5069 339.044 61.8659 338.424 62.111C337.813 62.3561 337.139 62.4787 336.403 62.4787Z" fill="#1A1D1E"/>
<path d="M123.768 0.539171V41.8756H118.494V0.539171H123.768Z" fill="#1A1D1E"/>
<path d="M245.205 0.539171V33.4885C245.205 34.8464 245.525 35.8449 246.164 36.4839C246.843 37.1229 247.862 37.4424 249.221 37.4424H264.143L264.383 41.5161C261.786 41.7158 259.129 41.8356 256.412 41.8756C253.735 41.9155 251.059 41.9355 248.382 41.9355C245.345 41.9355 243.188 41.1966 241.909 39.7189C240.631 38.2412 239.991 36.384 239.991 34.1475V0.539171H245.205Z" fill="#42A9DE"/>
<path d="M340 0.539171V39.7788C340 41.1767 339.321 41.8756 337.963 41.8756H332.809C332.209 41.8756 331.73 41.7358 331.37 41.4562C331.011 41.1767 330.711 40.7573 330.471 40.1982L316.507 10.9032C316.148 10.1045 315.728 9.20584 315.249 8.20738C314.77 7.20891 314.41 6.29033 314.17 5.45161H313.211C313.291 6.33026 313.351 7.22888 313.391 8.14747C313.431 9.06605 313.451 9.98464 313.451 10.9032V41.8756H308.177V2.63595C308.177 1.2381 308.876 0.539171 310.275 0.539171H315.249C315.848 0.539171 316.328 0.678956 316.687 0.958527C317.047 1.2381 317.347 1.65745 317.586 2.21659L331.131 30.7926C331.57 31.6313 332.03 32.5899 332.509 33.6682C333.028 34.7066 333.508 35.745 333.947 36.7834H334.966C334.926 35.7051 334.886 34.6467 334.846 33.6083C334.806 32.5699 334.786 31.5315 334.786 30.4931V0.539171H340Z" fill="#42A9DE"/>
<path fill-rule="evenodd" clip-rule="evenodd" d="M183.133 0.479264H177.14C174.703 0.479264 172.765 1.11828 171.327 2.39631C169.928 3.67435 169.209 5.43165 169.169 7.6682V34.7465C169.209 36.9432 169.928 38.7005 171.327 40.0184C172.765 41.2965 174.703 41.9355 177.14 41.9355C179.138 41.9355 181.135 41.9155 183.133 41.8756C185.171 41.8756 187.168 41.8556 189.126 41.8157C191.124 41.7757 193.041 41.6959 194.879 41.576L194.64 37.5023H178.039C176.8 37.5023 175.881 37.1828 175.282 36.5438C174.723 35.9048 174.443 34.8863 174.443 33.4885V22.1659H192.302V17.9124H174.443V8.92627C174.443 7.52842 174.723 6.52996 175.282 5.93088C175.881 5.29186 176.8 4.97235 178.039 4.97235H194.64L194.879 0.83871C193.041 0.718896 191.124 0.639019 189.126 0.599081C187.168 0.519203 185.171 0.479264 183.133 0.479264Z" fill="#1A1D1E"/>
<path fill-rule="evenodd" clip-rule="evenodd" d="M225.059 1.07834C223.101 0.359447 220.524 0 217.328 0C215.13 0 213.232 0.0199702 211.634 0.0599106C210.076 0.0599106 208.638 0.0998487 207.319 0.179725C206.001 0.259603 204.582 0.379419 203.064 0.539171V41.8756H208.278V24.5545C209.102 24.5771 210.021 24.5996 211.035 24.6221H217.388C218.786 24.6221 219.925 24.9616 220.804 25.6406C221.683 26.2796 222.382 27.3779 222.901 28.9355L226.557 41.8756H232.19L228.175 28.8157C227.895 27.6575 227.476 26.679 226.917 25.8802C226.357 25.0415 225.738 24.3825 225.059 23.9032C224.419 23.384 223.76 23.0446 223.081 22.8848V22.5853C224.919 22.3456 226.377 21.8264 227.456 21.0277C228.575 20.1889 229.394 19.0307 229.913 17.553C230.433 16.0353 230.692 14.1582 230.692 11.9217C230.692 8.80646 230.233 6.39017 229.314 4.67281C228.435 2.95545 227.016 1.7573 225.059 1.07834ZM208.278 4.61993C208.415 4.61766 208.555 4.61532 208.698 4.6129C211.095 4.57297 213.932 4.553 217.208 4.553C219.245 4.553 220.844 4.77266 222.002 5.21198C223.201 5.65131 224.06 6.43011 224.579 7.54839C225.099 8.62673 225.358 10.1843 225.358 12.2212C225.358 14.2581 225.099 15.8556 224.579 17.0138C224.06 18.1321 223.201 18.9109 222.002 19.3502C220.844 19.7896 219.245 20.0292 217.208 20.0691H208.278V4.61993Z" fill="#1A1D1E"/>
<path fill-rule="evenodd" clip-rule="evenodd" d="M83.7358 17.4931V0.539171H78.4619V41.8756H83.7358V22.0461H102.794V41.8756H108.068V0.539171H102.794V17.4931H83.7358Z" fill="#1A1D1E"/>
<path fill-rule="evenodd" clip-rule="evenodd" d="M148.382 0C151.699 0 154.316 0.379417 156.233 1.13825C158.191 1.89708 159.589 3.21506 160.429 5.09217C161.268 6.92934 161.687 9.54532 161.687 12.9401C161.687 16.3349 161.268 18.9708 160.429 20.8479C159.629 22.725 158.291 24.043 156.413 24.8018C154.575 25.5207 152.098 25.8802 148.982 25.8802C147.304 25.8802 145.686 25.8402 144.127 25.7604C142.609 25.6805 141.211 25.5806 139.932 25.4608C139.769 25.4405 139.61 25.4202 139.453 25.3998V41.8756H134.179V0.539171C135.697 0.379419 137.115 0.259603 138.434 0.179725C139.752 0.0998487 141.191 0.0599106 142.749 0.0599106C144.307 0.0199702 146.185 0 148.382 0ZM148.322 21.3272H141.55H139.453V4.61926L139.812 4.6129C142.21 4.57297 145.046 4.553 148.322 4.553C150.32 4.553 151.898 4.79263 153.057 5.27189C154.256 5.75115 155.095 6.58986 155.574 7.78802C156.094 8.98618 156.353 10.7035 156.353 12.9401C156.353 15.1367 156.094 16.8541 155.574 18.0922C155.095 19.2903 154.256 20.129 153.057 20.6083C151.898 21.0476 150.32 21.2873 148.322 21.3272Z" fill="#1A1D1E"/>
<path fill-rule="evenodd" clip-rule="evenodd" d="M287.077 0.539171C287.557 0.539171 287.976 0.678956 288.336 0.958527C288.695 1.19816 288.935 1.53764 289.055 1.97696L302.36 41.8756H296.906L292.812 28.9355H275.829L271.735 41.8756H266.281L279.586 1.97696C279.706 1.53764 279.946 1.19816 280.305 0.958527C280.665 0.678956 281.084 0.539171 281.564 0.539171H287.077ZM285.639 6.29032C285.839 6.84946 286.018 7.4086 286.178 7.96774L291.372 24.3825H277.269L282.463 7.96774C282.662 7.4086 282.842 6.84946 283.002 6.29032C283.162 5.69125 283.322 5.13211 283.481 4.6129H285.159C285.319 5.13211 285.479 5.69125 285.639 6.29032Z" fill="#42A9DE"/>
<defs>
<clipPath id="clip0_10_1983">
<rect width="62.7692" height="62.9032" fill="white"/>
</clipPath>
</defs>
</svg>
