<svg width="120" height="120" viewBox="0 0 120 120" fill="none" xmlns="http://www.w3.org/2000/svg">
<path d="M80.6797 15.1609L86.363 14.9254C87.943 14.86 89.3024 16.0321 89.4702 17.6045L93.0638 51.27C93.253 53.0428 91.8636 54.5884 90.0807 54.5884H87.0488C86.2466 54.5884 85.5962 55.2388 85.5962 56.041V56.041C85.5962 56.8433 86.2466 57.4937 87.0488 57.4937H92.6528C94.3096 57.4937 95.6528 58.8368 95.6528 60.4937V104.921C95.6528 106.608 94.2615 107.964 92.5745 107.92L21.3944 106.063C19.8007 106.021 18.5179 104.74 18.4738 103.147L17.2968 60.5766C17.2501 58.8879 18.6063 57.4937 20.2956 57.4937H23.022C23.6391 57.4937 24.1394 56.9934 24.1394 56.3763V56.3763C24.1394 55.7591 23.6391 55.2589 23.022 55.2589H21.6613C20.3999 55.2589 19.3398 54.3112 19.1988 53.0577L15.563 20.7183C15.3675 18.9788 16.6967 17.442 18.4463 17.3848L25.2568 17.1622M80.6797 15.1609L54.6916 16.2373C52.927 16.3104 51.6071 17.8843 51.8425 19.6346L56.1964 52.0052C56.3954 53.4844 57.6578 54.5884 59.1503 54.5884H60.6782C61.4805 54.5884 62.1309 55.2388 62.1309 56.041V56.041C62.1309 56.8433 61.4805 57.4937 60.6782 57.4937H48.8338C48.0316 57.4937 47.3812 56.8433 47.3812 56.041V56.041C47.3812 55.2388 48.0316 54.5884 48.8338 54.5884H51.3056C53.1283 54.5884 54.5298 52.9765 54.2765 51.1715L49.7672 19.0429C49.5541 17.5247 48.2306 16.4114 46.6983 16.4615L42.6882 16.5926M80.6797 15.1609C77.7417 12.6598 69.9189 9.26682 62.1309 15.703M42.6882 16.5926L25.2568 17.1622M42.6882 16.5926C39.2615 13.9867 30.9778 10.1896 25.2568 17.1622" stroke="#1A1D1E" stroke-linecap="round" stroke-linejoin="round"/>
<path d="M95.4289 107.777L102.844 104.37C103.909 103.88 104.592 102.816 104.592 101.644V58.9294C104.592 57.2726 103.248 55.9294 101.592 55.9294H85.8193" stroke="#1A1D1E" stroke-linecap="round" stroke-linejoin="round"/>
<path d="M74.4219 68.6678C73.7375 68.6678 73.0658 68.7257 72.4106 68.8373M74.4219 68.6678C75.1843 68.6678 75.9311 68.7397 76.6567 68.8775M74.4219 68.6678C72.7831 69.8597 69.3713 72.601 68.8349 74.0313V79.1713L64.3653 80.0653M72.9106 95.9159V97.2732H76.581V95.8156M72.4106 68.8373V66.6565H76.6567V68.8775M72.4106 68.8373C69.1527 69.3919 66.306 71.2722 64.3653 73.947M76.6567 68.8775C82.6263 70.0113 87.1602 75.6071 87.1602 82.3395C87.1602 87.5357 84.4593 92.0549 80.482 94.3679M76.6567 68.8775C81.5733 68.4306 90.5124 74.0313 89.1716 84.0879C88.0989 92.1331 81.6478 94.6787 78.2211 95.3928M78.2211 95.3928C77.0212 95.7946 75.7451 96.0112 74.4219 96.0112C67.3867 96.0112 61.6836 89.8901 61.6836 82.3395C61.6836 81.5647 61.7436 80.8049 61.859 80.0653M78.2211 95.3928C79.0104 95.1284 79.7668 94.7838 80.482 94.3679M64.3653 80.0653V73.947M64.3653 80.0653H61.859M64.3653 73.947C63.0963 75.6962 62.2147 77.7851 61.859 80.0653M80.482 94.3679C77.6425 93.921 71.4273 92.0438 69.2819 88.1105V82.747L65.0358 84.0879M65.0358 84.0879H63.0245M65.0358 84.0879V89.0044" stroke="#1A1D1E"/>
<path d="M34.6432 95.5679C35.2268 95.6607 35.8238 95.7087 36.431 95.7087C37.116 95.7087 37.7879 95.6476 38.4423 95.5301M34.6432 95.5679C28.7022 94.6235 24.1396 89.043 24.1396 82.3C24.1396 81.6164 24.1865 80.9447 24.277 80.2886M34.6432 95.5679V97.4966H38.4423V95.5301M38.4423 95.5301C42.2415 95.4406 50.108 92.9376 51.1807 83.6408C51.4786 78.8705 49.2587 69.2636 37.9954 68.9988M38.4423 95.5301C39.7101 95.3024 40.9125 94.8632 42.018 94.2467M34.4197 69.0698V66.8799H37.9954V68.9988M34.4197 69.0698C34.9939 68.9667 35.5816 68.907 36.1797 68.8939M34.4197 69.0698C29.1869 70.0095 25.0677 74.5545 24.277 80.2886M37.9954 68.9988C37.4831 68.9278 36.961 68.8912 36.431 68.8912C36.3471 68.8912 36.2633 68.8921 36.1797 68.8939M37.9954 68.9988C44.045 69.8371 48.7224 75.4726 48.7224 82.3C48.7224 87.5107 45.9978 92.0272 42.018 94.2467M36.1797 68.8939C34.4757 70.1594 31.0675 73.0479 31.0675 74.4782C31.0675 75.9084 31.0675 78.3518 31.0675 79.3947L26.8214 80.2886M26.8214 80.2886V74.4782M26.8214 80.2886C26.4638 80.2886 24.9762 80.2886 24.277 80.2886M42.018 94.2467C39.4107 94.1381 33.6152 92.7588 31.291 88.1104C31.291 87.2165 31.291 84.9817 31.291 83.6408L27.2684 84.5348M27.2684 84.5348V89.0043M27.2684 84.5348C26.9108 84.5348 25.9275 84.5348 25.4805 84.5348" stroke="#1A1D1E"/>
<path d="M74.5932 81.1827C74.5932 82.0744 73.9629 82.694 73.3054 82.694C72.6479 82.694 72.0176 82.0744 72.0176 81.1827C72.0176 80.291 72.6479 79.6714 73.3054 79.6714C73.9629 79.6714 74.5932 80.291 74.5932 81.1827Z" stroke="#1A1D1E"/>
<path d="M36.6011 81.6295C36.6011 82.5211 35.9707 83.1408 35.3132 83.1408C34.6557 83.1408 34.0254 82.5211 34.0254 81.6295C34.0254 80.7378 34.6557 80.1182 35.3132 80.1182C35.9707 80.1182 36.6011 80.7378 36.6011 81.6295Z" stroke="#1A1D1E"/>
<path d="M86.2134 81.1827C86.2134 82.0744 85.583 82.694 84.9255 82.694C84.268 82.694 83.6377 82.0744 83.6377 81.1827C83.6377 80.291 84.268 79.6714 84.9255 79.6714C85.583 79.6714 86.2134 80.291 86.2134 81.1827Z" stroke="#1A1D1E"/>
<path d="M48.2222 81.6295C48.2222 82.5211 47.5918 83.1408 46.9343 83.1408C46.2768 83.1408 45.6465 82.5211 45.6465 81.6295C45.6465 80.7378 46.2768 80.1182 46.9343 80.1182C47.5918 80.1182 48.2222 80.7378 48.2222 81.6295Z" stroke="#1A1D1E"/>
<path d="M49.5321 62.0027L21.5971 62.3703C19.9231 62.3923 18.591 63.7803 18.6377 65.4538L19.5887 99.4969C19.634 101.121 20.9633 102.413 22.5875 102.413H26.6962C27.4919 102.413 28.2549 102.729 28.8175 103.292L30.8868 105.361C31.4331 105.907 32.1691 106.222 32.9415 106.239L40.2862 106.402C41.2352 106.423 42.1381 105.994 42.7209 105.245L44.0225 103.571C44.5909 102.841 45.4648 102.413 46.3906 102.413H50.1419C51.8182 102.413 53.1693 101.04 53.1415 99.3634L52.5711 64.9527C52.5438 63.3001 51.1848 61.981 49.5321 62.0027Z" stroke="#1A1D1E" stroke-linecap="round" stroke-linejoin="round"/>
<path d="M87.5242 61.334L59.8068 61.714C58.1348 61.7369 56.8042 63.1225 56.849 64.7941L57.7995 100.246C57.8431 101.871 59.1729 103.166 60.7984 103.166H64.73C65.5962 103.166 66.42 103.54 66.9897 104.192L68.8591 106.333C69.4135 106.968 70.2095 107.34 71.0522 107.359L78.2139 107.518C79.1984 107.54 80.131 107.077 80.7091 106.28L82.0696 104.404C82.634 103.626 83.537 103.166 84.4982 103.166H88.1353C89.8108 103.166 91.1616 101.793 91.1349 100.118L90.5649 64.286C90.5386 62.6319 89.1783 61.3113 87.5242 61.334Z" stroke="#1A1D1E" stroke-linecap="round" stroke-linejoin="round"/>
<path d="M47.8283 36.81C47.8283 43.6488 43.5874 49.4255 37.7718 51.2814C36.4972 51.6881 35.1469 51.9065 33.7491 51.9065C33.3345 51.9065 32.924 51.8873 32.5184 51.8497C25.319 51.1812 19.6699 44.7029 19.6699 36.81C19.6699 28.4723 25.9734 21.7134 33.7491 21.7134C41.5249 21.7134 47.8283 28.4723 47.8283 36.81Z" stroke="#1A1D1E"/>
<ellipse cx="71.74" cy="35.5927" rx="14.5262" ry="15.4201" stroke="#1A1D1E"/>
</svg>
