<svg width="120" height="120" viewBox="0 0 120 120" fill="none" xmlns="http://www.w3.org/2000/svg">
<path d="M32.8112 54.7288L19.3846 67.484M32.8112 54.7288C31.379 50.6113 26.993 51.3721 24.979 52.2673L13.1189 64.3319M32.8112 54.7288L31.409 91.1845M19.3846 67.484V99.484M19.3846 67.484L12 65.4701M19.3846 99.484L12 96.7987V65.4701M19.3846 99.484L31.2448 95.456L31.409 91.1845M12 65.4701L13.1189 64.3319M32.8112 54.9526C45.5217 66.947 37.5105 78.7474 31.9161 83.1484L40.8671 80.4631C43.3287 78.0015 47.6252 70.9302 45.1189 62.3372C42.6126 53.7442 35.2727 49.9549 31.9161 49.1344L25.4266 52.0435M14.014 35.484L22.0699 31.6798L57.4266 39.9596C58.6946 40.1833 61.2308 41.5708 61.2308 45.3302V92.9945C60.7086 93.9642 57.0238 96.3064 52.7273 97.0225M44.6713 36.8267L85.3986 20.2673C88.9044 19.3722 97.4825 20.2225 103.748 30.7847C104.942 31.0087 107.329 31.9935 107.329 34.1416L108 59.6521C107.478 60.4726 105.986 61.9346 104.196 61.2185L100.168 63.9038M100.168 63.9038V66.5892L97.4825 67.9318M100.168 63.9038V60.547L97.4825 62.1134M97.4825 67.9318L93.9021 67.2605M97.4825 67.9318V62.1134M93.9021 67.2605L88.3077 69.9458M93.9021 67.2605V61.4421L97.4825 62.1134M88.3077 69.9458C87.6834 70.8475 86.0143 72.4329 84.0559 72.075M88.3077 69.9458C88.3077 69.9458 87.6364 43.9875 87.6364 42.6449C87.6364 41.3022 85.6224 39.512 83.8322 39.512L78.491 32.8779M84.0559 72.075C83.9083 72.048 83.759 72.01 83.6084 71.9598M84.0559 72.075L77.5664 75.3164C77.1189 76.3607 75.7762 78.315 73.986 77.778L71.7483 77.1066L66.3776 80.2395L61.4545 83.1486M86.965 20.2673C90.0979 20.7894 99.049 24.7428 102.406 31.9036C103.375 32.202 105.359 33.3358 105.538 35.484L106.434 61.2183M59.6643 41.0784L65.035 38.7391M65.035 38.7391C65.035 38.7391 69.5105 44.4351 70.4056 45.3302C72.6434 45.554 74.4336 46.8966 74.4336 48.4631C74.4336 50.0295 75.1049 77.7777 75.1049 77.7777M65.035 38.7391L67.2727 37.7644M67.2727 37.7644L76.2527 33.8528M67.2727 37.7644L72.6434 44.4351C74.4336 44.4351 76.4476 46.2253 76.4476 47.568C76.4476 48.9106 77.1189 75.9875 77.1189 75.9875M76.2527 33.8528L78.491 32.8779M76.2527 33.8528C76.2337 33.8287 76.2238 33.816 76.2238 33.816L78.4615 32.8413L78.491 32.8779M76.2527 33.8528C76.6374 34.3419 80.7415 39.5542 81.5944 40.4071C83.8322 40.6309 85.6224 41.9735 85.6224 43.54C85.6224 45.1064 86.0699 71.7358 86.0699 71.7358M78.491 32.8779L86.5416 29.3712M86.5416 29.3712L88.7798 28.3963M86.5416 29.3712C86.5257 29.351 86.5175 29.3405 86.5175 29.3405L88.7552 28.3658L88.7798 28.3963M86.5416 29.3712C86.8953 29.8208 91.0314 35.0749 91.8881 35.9316C94.1259 36.1554 95.9161 37.498 95.9161 39.0645C95.9161 40.6309 96.3636 61.4421 96.3636 61.4421M88.7798 28.3963L96.1399 25.1903M88.7798 28.3963L94.1259 35.0365C95.9161 35.0365 97.9301 36.8267 97.9301 38.1694C97.9301 39.512 98.3776 60.9945 98.3776 60.9945M13.1189 64.3319V38.1539C13.1189 36.1157 15.0343 34.6202 17.0116 35.1146L52.8158 44.0656C54.2104 44.4143 55.1888 45.6674 55.1888 47.1049V93.9607C55.1888 96.0503 53.1819 97.5542 51.1763 96.9675L31.409 91.1845" stroke="#1A1D1E" stroke-linecap="round" stroke-linejoin="round"/>
</svg>
