<svg width="120" height="120" viewBox="0 0 120 120" fill="none" xmlns="http://www.w3.org/2000/svg">
<path d="M51.0518 16.9336V99.1606M51.0518 16.9336L74.2809 15.7002V22.8951M51.0518 16.9336L65.4415 23.3062M51.0518 99.1606L74.2809 101.627V86.621M51.0518 99.1606L65.4415 86.0043M65.4415 86.0043V23.3062M65.4415 86.0043L74.2809 86.621M65.4415 23.3062L74.2809 22.8951M74.2809 86.621V22.8951" stroke="#1A1D1E"/>
<path d="M74.2805 103.272L49.2013 100.675V99.7772M74.2805 103.272V12.8221M74.2805 103.272L74.6866 102.655M74.2805 12.8221L49.2013 14.1205V15.9057M74.2805 12.8221L76.4389 14.2611M49.2013 15.9057L34.4004 14.8778V102.038L49.2013 99.7772M49.2013 15.9057V99.7772M82.0921 18.0299L85.3811 20.2226V86.4153L82.1322 91.3489M38.1006 98.5438L46.5289 97.5159V18.578L37.6895 17.9613L38.1006 98.5438Z" stroke="#1A1D1E"/>
<path d="M82.0913 12L74.4854 15.0835V102.861L82.0913 108V12Z" stroke="#1A1D1E"/>
</svg>
