<svg width="120" height="120" viewBox="0 0 120 120" fill="none" xmlns="http://www.w3.org/2000/svg">
<path d="M44.3909 19.2L12.2344 20.6083V85.3907L20.6843 82.06M44.3909 19.2V72.7158M44.3909 19.2H89.2222M44.3909 72.7158L20.6843 82.06M44.3909 72.7158L83.7347 77.8656M89.2222 19.2H108V81.1657L89.2222 99.9432V78.5838V67.0826V53.9383V29.5276V19.2ZM28.43 26.2415V71.5422M28.43 26.2415L37.1146 25.3026V68.4909L28.43 71.5422M28.43 26.2415L20.6843 26.9457V20.6083M28.43 71.5422L20.6843 74.1242V82.06M84.0583 29.5276H54.7185V41.4982L84.0583 42.51M84.0583 53.5871L54.7185 51.5911V63.5618L83.7347 66.5226M99.7845 26.9457L105.183 26.2415V76.7061L99.7845 81.4004V26.9457Z" stroke="#1A1D1E"/>
<path d="M84.0395 19.4347H88.9874L88.7527 100.413L83.5889 99.0044L84.0395 19.4347Z" stroke="#1A1D1E"/>
<path d="M15.9902 20.6083H12L12.2347 85.6254L15.9902 86.3295V20.6083Z" stroke="#1A1D1E"/>
</svg>
