<svg width="120" height="120" viewBox="0 0 120 120" fill="none" xmlns="http://www.w3.org/2000/svg">
<path d="M88.9632 94.0192L12 87.4923V32.2855M88.9632 94.0192L108 88.0362V32.2855M88.9632 94.0192V25.7586M88.9632 17.6L12 25.7586V32.2855M88.9632 17.6L108 25.7586V32.2855M88.9632 17.6V25.7586M88.9632 25.7586L108 32.2855M88.9632 25.7586L12 32.2855M17.711 26.5745V29.8379M81.6204 24.3988V20.3195M49.6657 23.447V27.1184M33.6884 25.0107V28.4782M25.6997 25.7926V29.158M41.6771 24.2289V27.7983M65.6431 21.8833V25.7586M57.6544 22.6651V26.4385M73.6317 21.1014V25.0787M21.7054 26.1835V29.498M29.6941 25.4017V28.8181M37.6827 24.6198V28.1382M45.6714 23.8379V27.4583M53.6601 23.0561V26.7784M61.6487 22.2742V26.0986M69.6374 21.4923V25.4187M77.6261 20.7105V24.7388M19.7082 26.379V29.668M23.7026 25.9881V29.328M27.6969 25.5971V28.9881M31.6912 25.2062V28.6481M35.6856 24.8153V28.3082M39.6799 24.4243V27.9682M43.6742 24.0334V27.6283M47.6686 23.6425V27.2884M51.6629 23.2515V26.9484M55.6572 22.8606V26.6085M59.6516 22.4697V26.2685M63.6459 22.0787V25.9286M67.6402 21.6878V25.5886M71.6346 21.2969V25.2487M75.6289 20.9059V24.9088M79.6232 20.515V24.5688M22.8782 36.0929L74.5496 32.2855V88.0362L22.8782 84.5008V36.0929ZM18.255 58.3932C16.0793 58.1212 15.2635 62.2005 17.711 62.4725C20.1586 62.7445 20.4306 58.6651 18.255 58.3932Z" stroke="#1A1D1E"/>
<path d="M12 89.1241V94.8351L90.051 102.722M12 89.1241L90.051 95.9229M12 89.1241L15.8074 87.7643M90.051 102.722L108 95.379V89.668M90.051 102.722V95.9229M108 89.668L90.051 95.9229M108 89.668L105.28 89.1241M90.051 95.9229L88.9632 93.7473M17.711 90.7558V94.0192M81.3484 100.546V96.4668M49.5297 93.6113V97.2827M33.6204 92.1835V95.651M25.6657 91.4697V94.8351M21.6884 91.1127V94.4272M19.6997 90.9343V94.2232M23.6771 91.2912V94.6311M29.6431 91.8266V95.243M27.6544 91.6481V95.0391M31.6317 92.0051V95.447M41.5751 92.8974V96.4668M37.5977 92.5405V96.0589M35.6091 92.362V95.8549M39.5864 92.719V96.2629M45.5524 93.2544V96.8748M43.5637 93.0759V96.6708M47.5411 93.4328V97.0787M65.4391 95.0391V98.9144M57.4844 94.3252V98.0986M53.5071 93.9682V97.6906M61.4618 94.6821V98.5065M51.5184 93.7898V97.4867M55.4958 94.1467V97.8946M59.4731 94.5037V98.3025M63.4504 94.8606V98.7105M73.3938 95.753V99.7303M69.4164 95.396V99.3224M67.4278 95.2175V99.1184M71.4051 95.5745V99.5263M77.3711 96.1099V100.138M75.3824 95.9314V99.9343M79.3598 96.2884V100.342" stroke="#1A1D1E"/>
</svg>
