<svg width="120" height="120" viewBox="0 0 120 120" fill="none" xmlns="http://www.w3.org/2000/svg">
<path d="M93.1234 81.0789L90.799 79.6843V70.8513L93.1234 72.0136M93.1234 81.0789L100.097 80.6141V71.5487M93.1234 81.0789V72.0136M100.097 71.5487L93.1234 72.0136M100.097 71.5487L98.4697 70.1578M93.1234 72.0136V70.2904M79.874 26.2218L82.4309 27.5002M79.874 26.2218L86.1501 25.9048M79.874 26.2218V60.3913M84.9878 28.7787L87.8643 28.6334M84.9878 28.7787L82.4309 27.5002M84.9878 28.7787V61.3211M108 27.6165V69.9216L105.123 69.9929M108 27.6165L102.886 25.0596L97.5399 25.3296M108 27.6165L105.123 27.7617M93.1234 70.2904L95.7965 70.2241M93.1234 70.2904L90.7409 70.3495M93.1234 70.2904L93.6174 28.3429M98.4697 70.1578L95.7965 70.2241M98.4697 70.1578L99.3704 70.1355M96.4939 28.1976L95.7965 70.2241M96.4939 28.1976L93.6174 28.3429M96.4939 28.1976L99.3704 28.0523M90.7409 28.4881V70.3495M90.7409 28.4881L93.6174 28.3429M90.7409 28.4881L87.8643 28.6334M90.7409 28.4881L86.1501 25.9048M90.7409 70.3495L87.8643 70.4208V28.6334M102.247 27.907V70.0642M102.247 27.907L105.123 27.7617M102.247 27.907L99.3704 28.0523M102.247 27.907L97.5399 25.3296M102.247 70.0642L105.123 69.9929M102.247 70.0642L99.3704 70.1355M105.123 27.7617V69.9929M99.3704 28.0523V70.1355M82.4309 27.5002V59.9264M86.1501 25.9048L97.5399 25.3296" stroke="#1A1D1E"/>
<path d="M47.5645 83.6358L45.24 82.0087V74.338L47.5645 75.5002M47.5645 83.6358V75.5002M47.5645 83.6358L54.3054 82.706V74.8029M47.5645 75.5002L54.3054 74.8029M47.5645 75.5002L47.7969 73.4082M54.3054 74.8029L52.6783 72.7108M38.2666 31.3355L41.2013 30.9578M38.2666 31.3355L35.7679 29.9409M38.2666 31.3355V52.4881M61.7436 28.3138L51.516 23.2L47.7969 23.6091M61.7436 28.3138L58.809 28.6915M61.7436 28.3138V62.2508M28.2715 25.7569L30.7703 27.1515M28.2715 25.7569L36.4071 24.8967M28.2715 25.7569V52.2556M50.0051 29.8246V72.8271M50.0051 29.8246L52.9398 29.4469M50.0051 29.8246L45.9373 30.3482M50.0051 72.8271L52.9398 72.4493M50.0051 72.8271L47.0705 73.2048M44.1359 30.5801V73.5825M44.1359 30.5801L47.0705 30.2024M44.1359 30.5801L41.2013 30.9578M44.1359 73.5825L47.0705 73.2048M44.1359 73.5825L41.7533 73.8892M55.8744 29.0692V72.0716M55.8744 29.0692L52.9398 29.4469M55.8744 29.0692L57.3417 28.8803M55.8744 72.0716L52.9398 72.4493M55.8744 72.0716L57.7921 71.8248M58.809 28.6915L57.3417 28.8803M58.809 28.6915V62.4832M52.9398 29.4469V72.4493M47.0705 30.2024V73.2048M47.0705 30.2024L45.9373 30.3482M41.2013 30.9578V54.1152M33.2691 28.5462L30.7703 27.1515M33.2691 28.5462L35.7679 29.9409M33.2691 28.5462V51.5583M30.7703 27.1515V52.0232M35.7679 29.9409V51.0934M36.4071 24.8967L45.9373 30.3482M36.4071 24.8967L47.7969 23.6091M47.7969 23.6091L57.3417 28.8803" stroke="#1A1D1E"/>
<path d="M71.7387 87.1224V96.4202M71.7387 87.1224L78.9445 86.1926M71.7387 87.1224L69.6467 85.7277V94.5606L71.7387 96.4202M71.7387 96.4202L78.9445 95.4904V86.1926M78.9445 86.1926L76.3876 84.9913M62.6733 86.6575V65.2725M62.6733 86.6575L65.7823 86.2798M62.6733 86.6575L60.2327 84.9141M87.545 62.7156V83.6357L81.3271 84.3911M87.545 62.7156L81.9663 60.1587L64.9978 62.0183M87.545 62.7156L84.4361 63.0352M62.6733 65.2725L65.7823 64.9529M62.6733 65.2725L60.2327 63.994M57.792 62.7156V83.1708L60.2327 84.9141M57.792 62.7156L60.2327 63.994M57.792 62.7156L64.9978 62.0183M75.1092 63.994V85.1466M75.1092 63.994L78.2181 63.6744M75.1092 63.994L72.0002 64.3137M75.1092 85.1466L72.0002 85.5243M75.1092 85.1466L76.3876 84.9913M68.8913 64.6333V85.902M68.8913 64.6333L65.7823 64.9529M68.8913 64.6333L69.1818 64.6034M81.3271 63.3548V84.3911M81.3271 63.3548L84.4361 63.0352M81.3271 63.3548L78.2181 63.6744M81.3271 63.3548L76.6201 60.7446M81.3271 84.3911L78.2181 84.7689M84.4361 63.0352V84.3911M78.2181 63.6744V84.7689M78.2181 84.7689L76.3876 84.9913M72.0002 64.3137V85.5243M72.0002 64.3137L69.1818 64.6034M68.8913 85.902L72.0002 85.5243M68.8913 85.902L65.7823 86.2798M65.7823 64.9529V86.2798M60.2327 63.994V84.9141M64.9978 62.0183L69.1818 64.6034" stroke="#1A1D1E"/>
<path d="M16.8814 84.3332V57.6957M16.8814 84.3332L19.9903 83.8627M16.8814 84.3332L14.4407 82.1617M41.753 54.5108V80.5692L35.5351 81.5102M41.753 54.5108L36.1743 51.3259L19.2058 53.6422M41.753 54.5108L38.6441 54.909M16.8814 57.6957L19.9903 57.2976M16.8814 57.6957L14.4407 56.1033M12 54.5108V79.9901L14.4407 82.1617M12 54.5108L14.4407 56.1033M12 54.5108L19.2058 53.6422M29.3172 56.1033V82.4512M29.3172 56.1033L32.4262 55.7052M29.3172 56.1033L26.2082 56.5014M29.3172 82.4512L26.2082 82.9217M29.3172 82.4512L30.5956 82.2577L32.4262 81.9807M29.3172 82.4512L31.2349 83.3922L33.1525 84.3332M23.0993 56.8995V83.3922M23.0993 56.8995L19.9903 57.2976M23.0993 56.8995L23.3898 56.8623M35.5351 55.3071V81.5102M35.5351 55.3071L38.6441 54.909M35.5351 55.3071L32.4262 55.7052M35.5351 55.3071L30.8281 52.0557M35.5351 81.5102L32.4262 81.9807M38.6441 54.909V81.5102M32.4262 55.7052V81.9807M26.2082 56.5014V82.9217M26.2082 56.5014L23.3898 56.8623M23.0993 83.3922L25.9467 82.9613M23.0993 83.3922L21.5448 83.6274M26.2082 82.9217L25.9467 82.9613M19.9903 57.2976V83.8627M19.9903 83.8627L21.5448 83.6274M14.4407 56.1033V82.1617M19.2058 53.6422L23.3898 56.8623M25.9467 94.3283L33.1525 93.1661V84.3332M25.9467 94.3283V85.263M25.9467 94.3283L23.6223 92.9337V84.5656M25.9467 82.9613V85.263M33.1525 84.3332L25.9467 85.263M25.9467 85.263L23.6223 84.5656M23.6223 84.5656L21.5448 83.6274" stroke="#1A1D1E"/>
</svg>
