<svg width="300" height="300" viewBox="0 0 300 300" fill="none" xmlns="http://www.w3.org/2000/svg">
<path d="M170.5 235.001C169.5 235 166.5 233.5 166 233.001C165.5 232.502 166 227.431 167.5 224.501C169 221.571 227 109 228.5 106.001C230 103.002 233.5 99.0011 237.5 101.001C241.5 103.001 239 108.5 238 110.501C237 112.502 177.874 227.416 176.5 230.001C175.126 232.586 171.5 235.002 170.5 235.001Z" stroke="#1A1D1E" stroke-width="2"/>
<path d="M128.898 233.213C127.906 233.093 125.106 231.246 124.669 230.691C124.232 230.136 125.333 225.161 127.172 222.431C129.01 219.7 200.018 114.848 201.865 112.049C203.712 109.25 207.664 105.695 211.397 108.158C215.13 110.621 211.992 115.782 210.761 117.65C209.529 119.517 137.124 226.561 135.452 228.964C133.779 231.368 129.891 233.334 128.898 233.213Z" stroke="#1A1D1E" stroke-width="2"/>
<path d="M97.5414 196.538C96.6009 196.198 94.2876 193.769 93.9863 193.13C93.6851 192.491 95.8752 187.89 98.2801 185.643C100.685 183.395 193.424 97.1647 195.852 94.852C198.28 92.5394 202.93 89.9627 206.015 93.2008C209.099 96.4388 204.883 100.764 203.263 102.307C201.644 103.85 107.051 191.903 104.881 193.869C102.712 195.835 98.4818 196.878 97.5414 196.538Z" stroke="#1A1D1E" stroke-width="2"/>
<path d="M74.3048 171.791C73.4244 171.316 71.4923 168.575 71.2881 167.898C71.0838 167.222 73.9252 162.992 76.6338 161.122C79.3424 159.251 183.728 87.5581 186.469 85.6267C189.21 83.6953 194.187 81.8285 196.763 85.484C199.34 89.1396 194.534 92.7993 192.706 94.0883C190.878 95.3773 84.3914 168.601 81.957 170.227C79.5226 171.854 75.1852 172.265 74.3048 171.791Z" stroke="#1A1D1E" stroke-width="2"/>
<path d="M62.0066 120.158C61.2737 119.478 60.0931 116.338 60.0654 115.633C60.0378 114.927 63.8514 111.547 66.9433 110.418C70.0353 109.288 189.094 66.1455 192.232 64.9654C195.371 63.7852 200.658 63.2299 202.232 67.4158C203.806 71.6016 198.235 73.9355 196.142 74.7234C194.048 75.5113 72.5712 119.607 69.806 120.569C67.0408 121.532 62.7394 120.839 62.0066 120.158Z" stroke="#1A1D1E" stroke-width="2"/>
</svg>
