<svg width="120" height="120" viewBox="0 0 120 120" fill="none" xmlns="http://www.w3.org/2000/svg">
<path d="M50.8475 18.4375L21.1525 20.4688V90.7502L12 92.1721V94.8128H15.0508V97.0471H16.678V94.4948L24.4068 92.9846L43.9322 94.4948M50.8475 18.4375L51.661 92.9846L43.9322 94.4948M50.8475 18.4375L52.8814 19.25V92.5784L57.5593 91.5627V94.2034L55.1186 94.8128V96.6409H53.2881V95.219L43.9322 97.4534V99.4847H42.3051V98.2659H39.661V97.0471H42.3051V94.8128L43.9322 94.4948M24.4068 89.9377V23.5156L48 21.8906V92.1721L28.678 91.0077M24.4068 89.9377V90.7502L28.678 91.0077M24.4068 89.9377L28.678 89.3284V91.0077M97.2006 18.6406L106.169 18.2344V34.8907M97.2006 18.6406L97.1778 21.6875M97.2006 18.6406L97.2203 16L68.7458 17.0156V97.6565H67.7288V99.8909H69.5593V100.907H71.5932V99.8909L93.5593 101.516V103.547H95.3898V101.516L106.169 96.844H108V94.8128H106.169V37.5313M97.1778 21.6875L103.525 21.4844V34.8907M97.1778 21.6875L97.0792 34.8907M103.525 34.8907H106.169M103.525 34.8907H97.0792M103.525 34.8907V37.5313M106.169 34.8907V37.5313M97.0792 34.8907L96.6344 94.4065M106.169 37.5313H103.525M103.525 37.5313H97.2203M103.525 37.5313V94.8128M103.525 94.8128L98.586 96.844M103.525 94.8128L96.6344 94.4065M71.1864 96.2346V97.6565L77.6949 98.0628M71.1864 96.2346L79.7288 93.594V38.3438M71.1864 96.2346V37.5313M79.7288 20.1668L94.1695 19.6563V21.4844M79.7288 20.1668L71.1864 20.4688V35.2969M79.7288 20.1668V36.1094M94.1695 94.2034V99.2815L77.6949 98.0628M94.1695 94.2034V21.4844M94.1695 94.2034L83.3898 93.594L82.7797 21.8906L94.1695 21.4844M79.7288 36.1094L71.1864 35.2969M79.7288 36.1094V38.3438M71.1864 35.2969V37.5313M71.1864 37.5313L79.7288 38.3438M77.6949 98.0628L82.983 96.2346L93.9661 96.844M96.6162 96.844L96.6102 97.6565L98.586 96.844M96.6162 96.844H98.586M96.6162 96.844L96.6344 94.4065" stroke="#1A1D1E"/>
</svg>
