<svg width="120" height="120" viewBox="0 0 120 120" fill="none" xmlns="http://www.w3.org/2000/svg">
<path d="M97.6084 82.7629V88.3711M97.6084 82.7629L101.983 83.8564C102.492 83.9838 102.816 84.4833 102.725 85.0003L102.094 88.5758C101.989 89.1679 101.39 89.5346 100.815 89.3578L97.6084 88.3711M97.6084 82.7629L97.1135 82.6719M60.8249 76H60.4693C59.9448 76 59.5991 76.5463 59.8236 77.0202V77.0202M60.8249 76V76.6598M60.8249 76L67.7527 77.2737M60.8249 79.134V76.6598M60.8249 79.134L61.4847 79.2997M60.8249 79.134L59.8236 77.0202M97.6084 88.3711L97.1135 88.2469M60.8249 76.6598L59.8236 77.0202M56.7012 79.134V78.8472C56.7012 78.4255 56.9657 78.0491 57.3625 77.9063L59.8236 77.0202M56.7012 80.1237V80.1237C56.7012 80.6737 57.2599 81.0472 57.7681 80.837L61.4847 79.2997M61.4847 79.2997L62.4744 79.5482M67.7527 77.2737L62.865 78.9963C62.6309 79.0788 62.4744 79.3 62.4744 79.5482V79.5482M67.7527 77.2737L75.1754 78.6384M62.4744 80.6186V79.5482M67.7527 80.8737L63.8619 82.5095C63.2028 82.7865 62.4744 82.3025 62.4744 81.5876V81.4122M67.7527 80.8737L69.897 81.4122M67.7527 80.8737L62.4744 79.5482M75.1754 78.6384L69.897 81.4122M75.1754 78.6384L84.9074 80.4277M69.897 81.4122L75.1754 82.7377M69.897 81.4122V82.7629M69.897 83.5876V84.015C69.897 84.7814 70.7238 85.263 71.3905 84.8848L75.1754 82.7377M75.1754 82.7377L79.9589 83.939M84.9074 80.4277L80.255 83.3985C80.0706 83.5163 79.9589 83.7201 79.9589 83.939V83.939M84.9074 80.4277L97.1135 82.6719M79.9589 85.4021V83.939M79.9589 86.3918V86.3918C79.9589 87.0995 80.7456 87.5236 81.3369 87.1346L84.4714 85.0722M84.4714 85.0722L79.9589 83.939M84.4714 85.0722L93.9795 87.4598M97.1135 82.6719L94.1771 86.6209C94.0488 86.7934 93.9795 87.0027 93.9795 87.2176V87.4598M93.9795 88.866V87.4598M93.9795 90.0206V90.0206C93.9795 90.6916 94.8182 90.9957 95.2482 90.4807L97.1135 88.2469M97.1135 88.2469L93.9795 87.4598M101.402 84.2474V84.2474C101.885 84.4381 101.703 85.1507 101.188 85.093C101.148 85.0885 101.109 85.0817 101.072 85.0722V85.0722C100.472 84.9161 100.794 84.0282 101.378 84.2381C101.386 84.2411 101.394 84.2442 101.402 84.2474ZM100.742 87.8763V87.8763C101.328 88.0274 101.195 88.9328 100.594 88.8679C100.588 88.8674 100.583 88.8667 100.577 88.866C100.545 88.8617 100.512 88.855 100.479 88.8461C99.8421 88.6756 100.104 87.7116 100.742 87.8763V87.8763ZM101.456 87.2343L99.3336 86.5269C99.1195 86.4556 99.0183 86.2112 99.1192 86.0094V86.0094C99.1994 85.8488 99.3832 85.7688 99.5554 85.8195L101.701 86.4507C101.906 86.5107 102.03 86.7166 101.988 86.9252V86.9252C101.94 87.1675 101.69 87.3124 101.456 87.2343Z" stroke="#1A1D1E" stroke-linecap="round"/>
<path d="M47.7939 79.6289V80.9382C47.7939 81.4904 48.2417 81.9382 48.7939 81.9382H53.5568C54.1091 81.9382 54.5568 81.4904 54.5568 80.9382V79.6289M47.7939 79.6289V77.1546M47.7939 79.6289H48.7836M54.5568 79.6289H53.5671M54.5568 79.6289V77.1546M47.7939 77.1546H48.7836M47.7939 77.1546V75.1753C47.7939 74.902 48.0155 74.6804 48.2888 74.6804V74.6804C48.5621 74.6804 48.7836 74.902 48.7836 75.1753V75.9175M48.7836 77.1546V79.6289M48.7836 77.1546V75.9175M48.7836 79.6289H53.5671M48.7836 75.9175H53.5671M53.5671 75.9175V75.1753C53.5671 74.902 53.7887 74.6804 54.062 74.6804V74.6804C54.3353 74.6804 54.5568 74.902 54.5568 75.1753V77.1546M53.5671 75.9175V77.1546M53.5671 79.6289V77.1546M53.5671 77.1546H54.5568" stroke="#1A1D1E" stroke-linecap="round"/>
<path d="M57.6904 60.6598V63.1059C57.6904 63.5972 58.0474 64.0158 58.5326 64.0933L102.062 71.0515M57.6904 60.6598L102.062 67.4226M57.6904 60.6598L58.7232 59.3402M102.062 71.0515V67.4226M102.062 71.0515L104.536 66.7628M102.062 67.4226L102.857 65.9381M60.6595 56.8659L60.0827 56.7423C59.3215 56.5792 58.674 57.3101 58.9278 58.0461L59.175 58.7628M60.6595 56.8659L59.175 58.7628M60.6595 56.8659L61.9791 57.0445M104.536 62.8041V66.7628M104.536 62.8041H107C107.552 62.8041 108 63.2518 108 63.8041V66.2142C108 66.8415 107.429 67.3139 106.813 67.1965L104.536 66.7628M104.536 62.8041L102.857 65.9381M104.536 62.8041L102.062 62.4692M59.175 58.7628L58.7232 59.3402M102.857 65.9381L100.247 65.548M58.7232 59.3402L60.6595 59.6296M102.062 62.4692L100.247 65.548M102.062 62.4692L100.247 62.2237M100.247 65.548L98.4327 65.2767M100.247 62.2237L98.4327 65.2767M100.247 62.2237L98.4327 61.9781M98.4327 65.2767L96.4533 64.9808M98.4327 61.9781L96.4533 64.9808M98.4327 61.9781L96.4533 61.7102M96.4533 64.9808L94.4739 64.6849M96.4533 61.7102L94.4739 64.6849M96.4533 61.7102L94.4739 61.4423M94.4739 64.6849L92.6595 64.4136M94.4739 61.4423L92.6595 64.4136M94.4739 61.4423L92.6595 61.1968M92.6595 64.4136L91.01 64.167M92.6595 61.1968L91.01 64.167M92.6595 61.1968L91.01 60.9735M91.01 64.167L89.1956 63.8958M91.01 60.9735L89.1956 63.8958M91.01 60.9735L89.1956 60.728M89.1956 63.8958L87.2162 63.5998M89.1956 60.728L87.2162 63.5998M89.1956 60.728L87.2162 60.4601M87.2162 63.5998L85.4018 63.3286M87.2162 60.4601L85.4018 63.3286M87.2162 60.4601L85.4018 60.2145M85.4018 63.3286L83.7523 63.082M85.4018 60.2145L83.7523 63.082M85.4018 60.2145L83.7523 59.9913M83.7523 63.082L81.8933 62.8041M83.7523 59.9913L81.8933 62.8041M83.7523 59.9913L81.8933 59.7397M81.8933 62.8041L80.1234 62.5395M81.8933 59.7397L80.1234 62.5395M81.8933 59.7397L80.1234 59.5002M80.1234 62.5395L78.309 62.2682M80.1234 59.5002L78.309 62.2682M80.1234 59.5002L78.309 59.2546M78.309 62.2682L76.6595 62.0216M78.309 59.2546L76.6595 62.0216M78.309 59.2546L76.6595 59.0314M76.6595 62.0216L75.01 61.775M76.6595 59.0314L75.01 61.775M76.6595 59.0314L75.01 58.8081M75.01 61.775L73.5255 61.5531M75.01 58.8081L73.5255 61.5531M75.01 58.8081L73.5255 58.6072M73.5255 61.5531L71.711 61.2818M73.5255 58.6072L71.711 61.2818M73.5255 58.6072L71.711 58.3616M71.711 61.2818L70.0616 61.0352M71.711 58.3616L70.0616 61.0352M71.711 58.3616L70.0616 58.1384M70.0616 61.0352L68.2471 60.764M70.0616 58.1384L68.2471 60.764M70.0616 58.1384L68.2471 57.8928M68.2471 60.764L66.5976 60.5174M68.2471 57.8928L66.5976 60.5174M68.2471 57.8928L66.5976 57.6696M66.5976 60.5174L64.9482 60.2708M66.5976 57.6696L64.9482 60.2708M66.5976 57.6696L64.9482 57.4464M64.9482 60.2708L63.2987 60.0242M64.9482 57.4464L63.2987 60.0242M64.9482 57.4464L63.2987 57.2231M63.2987 60.0242L61.6492 59.7776M63.2987 57.2231L61.6492 59.7776M63.2987 57.2231L61.9791 57.0445M61.6492 59.7776L60.6595 59.6296M61.9791 57.0445L60.6595 59.6296" stroke="#1A1D1E" stroke-linecap="round"/>
<path d="M77.1544 29.3196V29.9794M77.1544 34.9278L66.5977 43.835M77.1544 34.9278V29.9794M77.1544 34.9278C77.629 34.9278 93.5247 36.6176 103.799 37.7177M66.5977 43.835V43.0417C66.5977 42.8082 66.6794 42.5821 66.8286 42.4025L77.1544 29.9794M66.5977 43.835L97.9379 49.2783M97.9379 49.2783V47.9024C97.9379 47.7233 97.986 47.5475 98.0771 47.3934L103.799 37.7177M97.9379 49.2783L106.788 38.3369C106.931 38.1589 107.01 37.937 107.01 37.7081V35.944C107.01 34.9265 105.667 34.5591 105.149 35.435L103.799 37.7177" stroke="#1A1D1E" stroke-linecap="round"/>
<path d="M17.7734 35.7526V35.1925C17.7734 34.7436 18.0726 34.3496 18.5051 34.2292L18.7631 34.1573M18.7631 34.1573L40.4467 28.1169C40.7142 28.0423 41.0007 28.0825 41.2376 28.2276L56.2064 37.4021M18.7631 34.1573L28.9899 48.6186M28.9899 48.6186L28.4414 48.8537C28.0737 49.0112 27.8353 49.3728 27.8353 49.7728V51.4227M28.9899 48.6186L56.2064 37.4021M56.2064 37.4021V37.4021C56.6619 37.4021 57.0312 37.7713 57.0312 38.2268V39.0515" stroke="#1A1D1E" stroke-linecap="round"/>
<path d="M49.6082 65.2783L13.8613 58.1289C13.5242 58.0615 13.2453 57.8256 13.1229 57.5044L12 54.5567M49.6082 65.2783L49.1134 60.9897M49.6082 65.2783C50.158 64.7286 51.3566 63.759 52.1546 63.1328C52.418 62.9261 52.5635 62.6034 52.5404 62.2694L52.2474 58.0206M49.1134 60.9897L52.2474 58.0206M49.1134 60.9897L43.6701 60.0462M12 54.5567L14.2971 52.6903C14.515 52.5132 14.7974 52.4359 15.0752 52.4774L42.8454 56.6185L43.5052 56.7169M12 54.5567L40.2062 59.4458M52.2474 58.0206L46.9691 57.2335M40.2062 59.4458L43.6701 60.0462M40.2062 59.4458L43.5052 56.7169M43.6701 60.0462L46.9691 57.2335M46.9691 57.2335L46.1443 57.1105L43.5052 56.7169" stroke="#1A1D1E" stroke-linecap="round"/>
<mask id="path-7-inside-1_53_296" fill="white">
<ellipse cx="38.9249" cy="57.4664" rx="1.56681" ry="0.989691" transform="rotate(-15.5239 38.9249 57.4664)"/>
</mask>
<path d="M39.4711 57.3147C39.42 57.1309 39.5288 57.0733 39.4389 57.1725C39.3591 57.2604 39.1854 57.3833 38.9222 57.4564L39.4574 59.3835C40.0279 59.225 40.5498 58.9248 40.9205 58.5158C41.2812 58.1181 41.5954 57.4899 41.3981 56.7794L39.4711 57.3147ZM38.9222 57.4564C38.6589 57.5296 38.4467 57.5139 38.333 57.4796C38.2049 57.4411 38.3277 57.4343 38.3788 57.6181L36.4518 58.1534C36.6491 58.8638 37.2423 59.2399 37.7565 59.3947C38.285 59.5539 38.887 59.5419 39.4574 59.3835L38.9222 57.4564ZM38.3788 57.6181C38.4298 57.8019 38.3211 57.8594 38.411 57.7603C38.4907 57.6723 38.6644 57.5494 38.9277 57.4763L38.3924 55.5493C37.8219 55.7077 37.3001 56.008 36.9293 56.4169C36.5687 56.8147 36.2544 57.4429 36.4518 58.1534L38.3788 57.6181ZM38.9277 57.4763C39.191 57.4032 39.4031 57.4189 39.5168 57.4531C39.645 57.4917 39.5221 57.4985 39.4711 57.3147L41.3981 56.7794C41.2007 56.0689 40.6075 55.6928 40.0934 55.538C39.5648 55.3789 38.9629 55.3908 38.3924 55.5493L38.9277 57.4763Z" fill="#1A1D1E" mask="url(#path-7-inside-1_53_296)"/>
<mask id="path-9-inside-2_53_296" fill="white">
<ellipse cx="35.1292" cy="56.7798" rx="1.48847" ry="0.940206" transform="rotate(-15.5239 35.1292 56.7798)"/>
</mask>
<path d="M35.5998 56.649C35.5451 56.452 35.659 56.3802 35.5804 56.4669C35.5119 56.5425 35.3556 56.6548 35.1132 56.7221L35.6484 58.6492C36.1981 58.4965 36.7025 58.2068 37.062 57.8103C37.4114 57.425 37.7205 56.811 37.5269 56.1137L35.5998 56.649ZM35.1132 56.7221C34.8707 56.7895 34.6789 56.7739 34.5813 56.7445C34.4692 56.7107 34.6038 56.7135 34.6585 56.9105L32.7315 57.4458C32.9252 58.1431 33.5066 58.5096 34.0047 58.6596C34.5172 58.8139 35.0988 58.8018 35.6484 58.6492L35.1132 56.7221ZM34.6585 56.9105C34.7132 57.1075 34.5993 57.1793 34.678 57.0926C34.7464 57.017 34.9027 56.9047 35.1452 56.8374L34.6099 54.9103C34.0603 55.063 33.5558 55.3527 33.1963 55.7492C32.8469 56.1345 32.5378 56.7485 32.7315 57.4458L34.6585 56.9105ZM35.1452 56.8374C35.3876 56.77 35.5794 56.7856 35.6771 56.815C35.7891 56.8488 35.6545 56.846 35.5998 56.649L37.5269 56.1137C37.3332 55.4164 36.7517 55.0499 36.2536 54.8999C35.7411 54.7456 35.1595 54.7577 34.6099 54.9103L35.1452 56.8374Z" fill="#1A1D1E" mask="url(#path-9-inside-2_53_296)"/>
<mask id="path-11-inside-3_53_296" fill="white">
<ellipse cx="31.4411" cy="56.2148" rx="1.43624" ry="0.907216" transform="rotate(-15.5239 31.4411 56.2148)"/>
</mask>
<path d="M31.8614 56.0981C31.8043 55.8923 31.9216 55.811 31.8505 55.8894C31.7895 55.9567 31.6448 56.0619 31.4163 56.1254L31.9516 58.0525C32.4873 57.9036 32.9802 57.621 33.3322 57.2328C33.674 56.8557 33.9797 56.2513 33.7885 55.5628L31.8614 56.0981ZM31.4163 56.1254C31.1877 56.1889 31.0095 56.1734 30.9226 56.1472C30.8212 56.1167 30.9636 56.1258 31.0208 56.3316L29.0937 56.8669C29.285 57.5554 29.8586 57.9155 30.346 58.0623C30.8478 58.2133 31.4158 58.2013 31.9516 58.0525L31.4163 56.1254ZM31.0208 56.3316C31.0779 56.5373 30.9606 56.6187 31.0317 56.5402C31.0927 56.473 31.2374 56.3677 31.4659 56.3042L30.9307 54.3772C30.3949 54.526 29.9021 54.8086 29.5501 55.1968C29.2082 55.5739 28.9025 56.1783 29.0937 56.8669L31.0208 56.3316ZM31.4659 56.3042C31.6945 56.2407 31.8727 56.2563 31.9597 56.2825C32.061 56.313 31.9186 56.3038 31.8614 56.0981L33.7885 55.5628C33.5972 54.8743 33.0236 54.5141 32.5362 54.3674C32.0344 54.2163 31.4664 54.2284 30.9307 54.3772L31.4659 56.3042Z" fill="#1A1D1E" mask="url(#path-11-inside-3_53_296)"/>
<mask id="path-13-inside-4_53_296" fill="white">
<ellipse cx="28.0536" cy="55.6796" rx="1.3579" ry="0.857732" transform="rotate(-15.5239 28.0536 55.6796)"/>
</mask>
<path d="M28.3984 55.5838C28.3705 55.4832 28.3838 55.3986 28.3989 55.3527C28.4122 55.3124 28.4235 55.3096 28.4002 55.3353C28.3505 55.3901 28.2232 55.4848 28.0155 55.5425L28.5508 57.4695C29.0656 57.3265 29.5411 57.0545 29.8819 56.6786C30.2125 56.314 30.513 55.7238 30.3254 55.0485L28.3984 55.5838ZM28.0155 55.5425C27.8078 55.6002 27.6499 55.5847 27.579 55.5634C27.5459 55.5534 27.5569 55.55 27.5891 55.5776C27.6258 55.6092 27.6808 55.6748 27.7087 55.7754L25.7817 56.3106C25.9693 56.986 26.5311 57.3366 27.0024 57.4785C27.4882 57.6247 28.0359 57.6125 28.5508 57.4695L28.0155 55.5425ZM27.7087 55.7754C27.7366 55.8759 27.7234 55.9605 27.7082 56.0065C27.6949 56.0467 27.6837 56.0495 27.7069 56.0239C27.7566 55.969 27.8839 55.8743 28.0916 55.8166L27.5564 53.8896C27.0415 54.0326 26.566 54.3047 26.2252 54.6805C25.8946 55.0451 25.5941 55.6353 25.7817 56.3106L27.7087 55.7754ZM28.0916 55.8166C28.2993 55.7589 28.4572 55.7744 28.5281 55.7957C28.5613 55.8057 28.5502 55.8091 28.5181 55.7815C28.4813 55.7499 28.4263 55.6843 28.3984 55.5838L30.3254 55.0485C30.1378 54.3731 29.576 54.0225 29.1047 53.8807C28.6189 53.7344 28.0712 53.7466 27.5564 53.8896L28.0916 55.8166Z" fill="#1A1D1E" mask="url(#path-13-inside-4_53_296)"/>
<mask id="path-15-inside-5_53_296" fill="white">
<ellipse cx="24.9665" cy="55.1161" rx="1.25345" ry="0.791753" transform="rotate(-15.5239 24.9665 55.1161)"/>
</mask>
<path d="M25.2107 55.0483C25.1803 54.9389 25.1941 54.8452 25.2123 54.7902C25.2286 54.7409 25.2452 54.7293 25.2295 54.7466C25.1948 54.7849 25.0907 54.8655 24.9108 54.9155L25.446 56.8425C25.9331 56.7072 26.3854 56.4493 26.7112 56.09C27.0268 55.7419 27.3205 55.1708 27.1377 54.513L25.2107 55.0483ZM24.9108 54.9155C24.7309 54.9654 24.6001 54.9501 24.5506 54.9352C24.5282 54.9285 24.5485 54.9298 24.5879 54.9637C24.6318 55.0014 24.6919 55.0746 24.7223 55.1839L22.7953 55.7192C22.978 56.377 23.5242 56.7149 23.9741 56.8503C24.4384 56.9901 24.9589 56.9778 25.446 56.8425L24.9108 54.9155ZM24.7223 55.1839C24.7527 55.2933 24.7389 55.387 24.7207 55.442C24.7044 55.4913 24.6878 55.503 24.7035 55.4856C24.7382 55.4473 24.8423 55.3667 25.0222 55.3168L24.487 53.3897C23.9999 53.525 23.5476 53.783 23.2218 54.1422C22.9063 54.4903 22.6125 55.0614 22.7953 55.7192L24.7223 55.1839ZM25.0222 55.3168C25.2021 55.2668 25.3329 55.2821 25.3824 55.297C25.4048 55.3038 25.3845 55.3024 25.3451 55.2685C25.3012 55.2308 25.2411 55.1576 25.2107 55.0483L27.1377 54.513C26.955 53.8552 26.4088 53.5174 25.9589 53.3819C25.4946 53.2421 24.9741 53.2544 24.487 53.3897L25.0222 55.3168Z" fill="#1A1D1E" mask="url(#path-15-inside-5_53_296)"/>
<mask id="path-17-inside-6_53_296" fill="white">
<ellipse cx="21.9376" cy="54.6364" rx="1.20122" ry="0.758763" transform="rotate(-15.5239 21.9376 54.6364)"/>
</mask>
<path d="M22.1315 54.5825C22.0999 54.4688 22.1139 54.3705 22.1336 54.311C22.1514 54.2572 22.1708 54.2411 22.1588 54.2543C22.1316 54.2843 22.0391 54.3578 21.8731 54.404L22.4083 56.331C22.8815 56.1996 23.3223 55.9487 23.6405 55.5977C23.9485 55.2579 24.2388 54.6963 24.0585 54.0473L22.1315 54.5825ZM21.8731 54.404C21.707 54.4501 21.5899 54.4348 21.5511 54.4231C21.534 54.418 21.5589 54.4218 21.6019 54.4587C21.6494 54.4995 21.7121 54.5765 21.7437 54.6902L19.8167 55.2255C19.997 55.8745 20.5353 56.206 20.9745 56.3382C21.4282 56.4748 21.9351 56.4624 22.4083 56.331L21.8731 54.404ZM21.7437 54.6902C21.7753 54.804 21.7613 54.9023 21.7417 54.9618C21.7239 55.0156 21.7045 55.0317 21.7165 55.0185C21.7436 54.9885 21.8362 54.9149 22.0022 54.8688L21.4669 52.9418C20.9937 53.0732 20.553 53.3241 20.2348 53.6751C19.9267 54.0149 19.6364 54.5765 19.8167 55.2255L21.7437 54.6902ZM22.0022 54.8688C22.1682 54.8227 22.2854 54.838 22.3242 54.8497C22.3412 54.8548 22.3163 54.851 22.2733 54.8141C22.2258 54.7732 22.1631 54.6963 22.1315 54.5825L24.0585 54.0473C23.8783 53.3982 23.3399 53.0668 22.9007 52.9346C22.4471 52.798 21.9401 52.8103 21.4669 52.9418L22.0022 54.8688Z" fill="#1A1D1E" mask="url(#path-17-inside-6_53_296)"/>
<mask id="path-19-inside-7_53_296" fill="white">
<ellipse cx="18.9097" cy="54.1567" rx="1.149" ry="0.725773" transform="rotate(-15.5239 18.9097 54.1567)"/>
</mask>
<path d="M19.0533 54.1168C19.0205 53.9987 19.0347 53.8958 19.0559 53.8318C19.0752 53.7735 19.0973 53.7529 19.0891 53.762C19.0694 53.7837 18.9884 53.8502 18.8363 53.8924L19.3716 55.8195C19.8309 55.6919 20.26 55.4481 20.5707 55.1054C20.8713 54.7739 21.1582 54.2218 20.9803 53.5815L19.0533 54.1168ZM18.8363 53.8924C18.6842 53.9347 18.5806 53.9195 18.5525 53.9111C18.5408 53.9075 18.5704 53.9137 18.6169 53.9537C18.6681 53.9977 18.7334 54.0784 18.7662 54.1965L16.8391 54.7318C17.017 55.3721 17.5475 55.6971 17.976 55.8261C18.4189 55.9595 18.9123 55.9471 19.3716 55.8195L18.8363 53.8924ZM18.7662 54.1965C18.799 54.3147 18.7847 54.4175 18.7636 54.4815C18.7443 54.5399 18.7221 54.5604 18.7304 54.5513C18.7501 54.5296 18.831 54.4631 18.9831 54.4209L18.4478 52.4939C17.9885 52.6214 17.5594 52.8653 17.2487 53.208C16.9481 53.5395 16.6613 54.0916 16.8391 54.7318L18.7662 54.1965ZM18.9831 54.4209C19.1352 54.3786 19.2389 54.3938 19.2669 54.4023C19.2787 54.4058 19.2491 54.3996 19.2025 54.3596C19.1514 54.3157 19.0861 54.2349 19.0533 54.1168L20.9803 53.5815C20.8025 52.9413 20.272 52.6162 19.8435 52.4872C19.4005 52.3539 18.9071 52.3663 18.4478 52.4939L18.9831 54.4209Z" fill="#1A1D1E" mask="url(#path-19-inside-7_53_296)"/>
<mask id="path-21-inside-8_53_296" fill="white">
<ellipse cx="15.8818" cy="53.6772" rx="1.09677" ry="0.692784" transform="rotate(-15.5239 15.8818 53.6772)"/>
</mask>
<path d="M15.9751 53.6513C15.941 53.5288 15.9556 53.4213 15.9782 53.3528C15.9989 53.29 16.0238 53.265 16.0193 53.2699C16.0072 53.2834 15.9378 53.3428 15.7996 53.3812L16.3349 55.3082C16.7803 55.1845 17.1978 54.9477 17.501 54.6133C17.7941 54.2901 18.0775 53.7475 17.9021 53.116L15.9751 53.6513ZM15.7996 53.3812C15.6614 53.4196 15.5713 53.4044 15.554 53.3992C15.5476 53.3973 15.5818 53.4059 15.632 53.449C15.6867 53.496 15.7546 53.5806 15.7886 53.7031L13.8615 54.2384C14.0369 54.8698 14.5596 55.1885 14.9774 55.3143C15.4096 55.4444 15.8895 55.4319 16.3349 55.3082L15.7996 53.3812ZM15.7886 53.7031C15.8226 53.8256 15.8081 53.933 15.7855 54.0015C15.7647 54.0644 15.7398 54.0894 15.7443 54.0844C15.7565 54.071 15.8258 54.0116 15.964 53.9732L15.4288 52.0462C14.9834 52.1699 14.5658 52.4067 14.2626 52.7411C13.9696 53.0643 13.6861 53.6069 13.8615 54.2384L15.7886 53.7031ZM15.964 53.9732C16.1023 53.9348 16.1923 53.95 16.2097 53.9552C16.2161 53.9571 16.1819 53.9485 16.1317 53.9054C16.0769 53.8584 16.0091 53.7738 15.9751 53.6513L17.9021 53.116C17.7267 52.4846 17.204 52.1659 16.7862 52.0401C16.354 51.91 15.8742 51.9224 15.4288 52.0462L15.964 53.9732Z" fill="#1A1D1E" mask="url(#path-21-inside-8_53_296)"/>
<path d="M17.938 65.6082C18.1029 65.8281 18.4988 66.2679 18.7627 66.2679C19.0007 66.2679 23.0126 67.1622 25.5725 67.7411C26.0279 67.8441 26.3504 68.2488 26.3504 68.7157V84.4012C26.3504 85.1911 25.4776 85.6691 24.812 85.2439L21.4913 83.1223M16.9483 66.7628L16.6882 66.436C16.5369 66.2459 16.3216 66.1174 16.0824 66.0745L14.756 65.8364C14.1122 65.7208 13.5327 66.2442 13.5822 66.8964L14.4362 78.141C14.4601 78.4546 14.63 78.7387 14.895 78.908L18.9803 81.5181M21.4913 83.1223L17.9705 85.7166C17.5724 86.0099 17.0198 85.9683 16.6701 85.6187L15.9964 84.9449C15.5502 84.4987 15.6237 83.7558 16.1488 83.4058L18.9803 81.5181M21.4913 83.1223L22.3379 82.4985C22.9126 82.0751 22.8713 81.2032 22.2592 80.8359L21.6147 80.4492C21.2833 80.2504 20.867 80.2603 20.5455 80.4746L18.9803 81.5181" stroke="#1A1D1E" stroke-linecap="round"/>
<path d="M32.6184 76.8834C32.2014 76.5524 31.6851 76.3845 31.1339 76.4948C29.9951 76.7225 29.4844 77.8077 29.4844 78.969C29.4844 80.1303 29.9951 81.2155 31.1339 81.4432C32.1427 81.645 33.035 80.915 33.4143 79.9587M32.6184 76.8834C33.2151 77.357 33.6081 78.1646 33.6081 78.969C33.6081 79.3066 33.5388 79.6449 33.4143 79.9587M32.6184 76.8834L36.2395 75.2386C36.5523 75.0965 36.9199 75.1213 37.1793 75.3467C37.3893 75.5291 37.6194 75.7649 37.7318 75.9999C37.9164 76.3859 37.8781 76.9673 37.8187 77.3674C37.7762 77.6538 37.5829 77.8883 37.3236 78.0171L33.4143 79.9587" stroke="#1A1D1E" stroke-linecap="round"/>
<mask id="path-25-inside-9_53_296" fill="white">
<path fill-rule="evenodd" clip-rule="evenodd" d="M41.196 86.2268C43.4734 86.2268 45.3197 84.8236 45.3197 83.0928C45.3197 81.3619 43.4734 79.9587 41.196 79.9587C38.9185 79.9587 37.0723 81.3619 37.0723 83.0928C37.0723 84.8236 38.9185 86.2268 41.196 86.2268ZM41.1956 84.5773C41.9244 84.5773 42.5152 84.1342 42.5152 83.5876C42.5152 83.041 41.9244 82.5979 41.1956 82.5979C40.4668 82.5979 39.876 83.041 39.876 83.5876C39.876 84.1342 40.4668 84.5773 41.1956 84.5773Z"/>
</mask>
<path d="M44.3197 83.0928C44.3197 83.5786 44.063 84.0899 43.5068 84.5127C42.9498 84.936 42.1361 85.2268 41.196 85.2268V87.2268C42.5333 87.2268 43.7815 86.816 44.717 86.105C45.6532 85.3935 46.3197 84.3378 46.3197 83.0928H44.3197ZM41.196 80.9587C42.1361 80.9587 42.9498 81.2495 43.5068 81.6728C44.063 82.0956 44.3197 82.607 44.3197 83.0928H46.3197C46.3197 81.8477 45.6532 80.7921 44.717 80.0805C43.7815 79.3695 42.5333 78.9587 41.196 78.9587V80.9587ZM38.0723 83.0928C38.0723 82.607 38.3289 82.0956 38.8852 81.6728C39.4421 81.2495 40.2558 80.9587 41.196 80.9587V78.9587C39.8587 78.9587 38.6105 79.3695 37.675 80.0805C36.7387 80.7921 36.0723 81.8477 36.0723 83.0928H38.0723ZM41.196 85.2268C40.2558 85.2268 39.4421 84.936 38.8852 84.5127C38.3289 84.0899 38.0723 83.5786 38.0723 83.0928H36.0723C36.0723 84.3378 36.7387 85.3935 37.675 86.105C38.6105 86.816 39.8587 87.2268 41.196 87.2268V85.2268ZM41.5152 83.5876C41.5152 83.4756 41.578 83.4504 41.5287 83.4874C41.479 83.5247 41.3645 83.5773 41.1956 83.5773V85.5773C41.7554 85.5773 42.3007 85.4083 42.7287 85.0874C43.1569 84.7662 43.5152 84.2462 43.5152 83.5876H41.5152ZM41.1956 83.5979C41.3645 83.5979 41.479 83.6505 41.5287 83.6878C41.578 83.7248 41.5152 83.6996 41.5152 83.5876H43.5152C43.5152 82.929 43.1569 82.4089 42.7287 82.0878C42.3007 81.7668 41.7554 81.5979 41.1956 81.5979V83.5979ZM40.876 83.5876C40.876 83.6996 40.8131 83.7248 40.8625 83.6878C40.9122 83.6505 41.0266 83.5979 41.1956 83.5979V81.5979C40.6357 81.5979 40.0904 81.7668 39.6625 82.0878C39.2343 82.4089 38.876 82.929 38.876 83.5876H40.876ZM41.1956 83.5773C41.0266 83.5773 40.9122 83.5247 40.8625 83.4874C40.8131 83.4504 40.876 83.4756 40.876 83.5876H38.876C38.876 84.2462 39.2343 84.7662 39.6625 85.0874C40.0904 85.4083 40.6357 85.5773 41.1956 85.5773V83.5773Z" fill="#1A1D1E" mask="url(#path-25-inside-9_53_296)"/>
</svg>
